<?xml version="1.0" encoding="iso-8859-1"?>
<!-- Generator: Adobe Illustrator 19.0.0, SVG Export Plug-In . SVG Version: 6.00 Build 0)  -->
<svg version="1.1" id="Layer_1" xmlns="http://www.w3.org/2000/svg" xmlns:xlink="http://www.w3.org/1999/xlink" x="0px" y="0px"
	 viewBox="0 0 512 512" style="enable-background:new 0 0 512 512;" xml:space="preserve">
<path style="fill:#E6E6E6;" d="M471.935,162.881H40.066c-16.494,0-29.866-13.372-29.866-29.867V61.925
	c0-16.495,13.372-29.866,29.866-29.866h431.868c16.495,0,29.866,13.372,29.866,29.866v71.088
	C501.801,149.509,488.429,162.881,471.935,162.881z"/>
<polygon style="fill:#FFD890;" points="97.912,479.94 174.406,479.94 97.912,403.446 "/>
<polygon style="fill:#BDD169;" points="414.088,97.47 97.912,97.47 97.912,403.446 174.406,479.94 337.594,479.94 414.088,403.446 
	"/>
<polygon style="fill:#FFD890;" points="414.088,403.446 337.594,479.94 414.088,479.94 "/>
<circle style="fill:#E6E6E6;" cx="256" cy="184.676" r="86.183"/>
<g>
	<path style="fill:#4C1D1D;" d="M414.088,490.139c5.632,0,10.199-4.566,10.199-10.199V173.08h47.648
		c22.092,0,40.065-17.974,40.065-40.066V61.926c0-22.092-17.973-40.066-40.065-40.066H40.066C17.973,21.86,0,39.833,0,61.926v71.088
		c0,22.091,17.973,40.066,40.066,40.066h47.648v306.86c0,5.633,4.567,10.199,10.199,10.199h316.175V490.139z M178.632,469.74
		l-70.52-70.519V107.668h89.99c-23.356,17.605-38.484,45.57-38.484,77.004c0,53.145,43.237,96.382,96.382,96.382
		s96.382-43.237,96.382-96.382c0-31.434-15.128-59.399-38.484-77.004h89.99V399.22l-70.52,70.52H178.632z M331.984,184.672
		c0,41.898-34.087,75.984-75.984,75.984s-75.984-34.086-75.984-75.984s34.087-75.984,75.984-75.984S331.984,142.775,331.984,184.672
		z M108.112,469.74v-41.671l41.671,41.671H108.112z M362.218,469.74l41.671-41.671v41.671H362.218z M491.602,133.014
		c0,10.845-8.822,19.667-19.667,19.667h-47.648V106.65h25.498c5.632,0,10.199-4.566,10.199-10.199
		c0-5.633-4.567-10.199-10.199-10.199H62.215c-5.632,0-10.199,4.566-10.199,10.199c0,5.633,4.567,10.199,10.199,10.199h25.498
		v46.032H40.066c-10.845,0-19.667-8.823-19.667-19.667V61.926c0-10.845,8.822-19.667,19.667-19.667h431.869
		c10.845,0,19.667,8.822,19.667,19.667L491.602,133.014L491.602,133.014z"/>
	<path style="fill:#4C1D1D;" d="M205.407,189.124h4.222c2.451,15.255,12.123,25.743,28.876,25.743
		c18.524,0,24.654-13.62,29.147-25.743h23.972c-0.68,9.125-5.038,12.258-5.038,16.072c0,5.039,6.265,7.219,9.398,7.219
		c7.9,0,10.488-14.437,10.761-23.291h3.541c1.771,0,3.406-2.316,3.406-4.631c0-2.589-1.635-4.631-3.406-4.631h-3.813
		c-1.771-13.62-9.262-26.424-26.56-26.424c-17.435,0-22.746,14.029-27.378,26.424h-27.104c1.363-11.986,10.216-16.072,10.216-21.248
		c0-4.222-5.72-7.628-9.534-7.628c-7.628,0-16.481,12.394-16.89,28.876h-3.813c-1.771,0-3.406,2.043-3.406,4.631
		C202.001,186.809,203.635,189.124,205.407,189.124z M281.682,170.056c5.175,0,8.444,4.086,9.534,10.897h-20.567
		C273.1,174.686,275.689,170.056,281.682,170.056z M249.264,188.035c-2.588,5.856-5.856,10.216-12.531,10.216
		c-6.401,0-9.942-4.222-11.168-10.216H249.264z"/>
	<path style="fill:#4C1D1D;" d="M282.518,399.366c-5.632,0-10.199,4.566-10.199,10.199v10.199c0,5.633,4.567,10.199,10.199,10.199
		c5.632,0,10.199-4.566,10.199-10.199v-10.199C292.717,403.932,288.15,399.366,282.518,399.366z"/>
	<path style="fill:#4C1D1D;" d="M282.518,315.732c-5.632,0-10.199,4.566-10.199,10.199v42.837c0,5.633,4.567,10.199,10.199,10.199
		c5.632,0,10.199-4.566,10.199-10.199v-42.837C292.717,320.298,288.15,315.732,282.518,315.732z"/>
	<path style="fill:#4C1D1D;" d="M229.482,315.732c-5.632,0-10.199,4.566-10.199,10.199v93.833c0,5.633,4.567,10.199,10.199,10.199
		c5.632,0,10.199-4.566,10.199-10.199v-93.833C239.681,320.298,235.114,315.732,229.482,315.732z"/>
</g>
<g>
</g>
<g>
</g>
<g>
</g>
<g>
</g>
<g>
</g>
<g>
</g>
<g>
</g>
<g>
</g>
<g>
</g>
<g>
</g>
<g>
</g>
<g>
</g>
<g>
</g>
<g>
</g>
<g>
</g>
</svg>
