<?xml version="1.0" encoding="iso-8859-1"?>
<!-- Generator: Adobe Illustrator 19.0.0, SVG Export Plug-In . SVG Version: 6.00 Build 0)  -->
<svg version="1.1" id="Capa_1" xmlns="http://www.w3.org/2000/svg" xmlns:xlink="http://www.w3.org/1999/xlink" x="0px" y="0px"
	 viewBox="0 0 512 512" style="enable-background:new 0 0 512 512;" xml:space="preserve">
<circle style="fill:#5C5E70;" cx="256" cy="255.999" r="255.999"/>
<path style="fill:#F9EED7;" d="M469.145,45.041v352.793c-4.556,6.844-9.446,13.448-14.629,19.801
	C407.58,475.23,336.078,512,255.997,512s-151.583-36.77-198.52-94.365c-5.183-6.353-10.073-12.957-14.629-19.801V45.041
	c0-7.008,5.681-12.69,12.69-12.69h400.917C463.464,32.351,469.145,38.032,469.145,45.041z"/>
<path style="fill:#FCF8F2;" d="M454.517,96.613v321.022C407.58,475.23,336.078,512,255.997,512s-151.583-36.77-198.52-94.365V96.613
	H454.517z"/>
<circle style="fill:#FF525D;" cx="80.092" cy="66.836" r="15.672"/>
<circle style="fill:#FFD15C;" cx="127.112" cy="66.836" r="15.672"/>
<circle style="fill:#4BC999;" cx="176.442" cy="66.836" r="15.672"/>
<path style="fill:#D6C8B0;" d="M420.971,51.946H232.899c-8.223,0-14.889,6.666-14.889,14.889l0,0
	c0,8.223,6.666,14.889,14.889,14.889h188.072c8.223,0,14.889-6.666,14.889-14.889l0,0C435.86,58.612,429.195,51.946,420.971,51.946z
	"/>
<path style="fill:#EF4152;" d="M319.633,191.492c-18.921,0-36.509-6.584-51.176-17.872c-7.348-5.655-17.572-5.655-24.919,0
	c-14.667,11.288-32.255,17.872-51.176,17.872c-13.04,0-25.447-3.127-36.703-8.766c-12.345-6.185-27.22,1.156-29.297,14.807
	c-3.068,20.161-4.707,41.376-4.707,63.277c0,92.978,65.88,173.627,105.37,213.62c15.933,16.135,42.009,16.135,57.942,0
	c39.491-39.992,105.37-120.643,105.37-213.62c0-21.901-1.639-43.116-4.707-63.277c-2.077-13.651-16.951-20.992-29.297-14.807
	C345.08,188.364,332.673,191.492,319.633,191.492z"/>
<path style="fill:#FF525D;" d="M269.093,452.842c-7.164,7.394-19.028,7.394-26.191,0c-15.248-15.736-34.519-37.856-51.648-64.24
	c-28.639-44.111-43.159-87.108-43.159-127.792c0-17.256,1.089-34.379,3.241-51.017c13.103,5.403,26.866,8.137,41.027,8.137
	c22.7,0,44.608-7.123,63.635-20.647c19.03,13.524,40.936,20.647,63.636,20.647c14.16,0,27.925-2.733,41.027-8.137
	c2.152,16.639,3.241,33.762,3.241,51.017c0,40.685-14.521,83.68-43.159,127.792C303.612,414.987,284.341,437.105,269.093,452.842z"
	/>
<g>
</g>
<g>
</g>
<g>
</g>
<g>
</g>
<g>
</g>
<g>
</g>
<g>
</g>
<g>
</g>
<g>
</g>
<g>
</g>
<g>
</g>
<g>
</g>
<g>
</g>
<g>
</g>
<g>
</g>
</svg>
