<?xml version="1.0" encoding="iso-8859-1"?>
<!-- Generator: Adobe Illustrator 19.0.0, SVG Export Plug-In . SVG Version: 6.00 Build 0)  -->
<svg version="1.1" id="Layer_1" xmlns="http://www.w3.org/2000/svg" xmlns:xlink="http://www.w3.org/1999/xlink" x="0px" y="0px"
	 viewBox="0 0 512 512" style="enable-background:new 0 0 512 512;" xml:space="preserve">
<path style="fill:#415E72;" d="M0,355.2v-324c0.104-5.704,4.696-10.296,10.4-10.4h491.2c5.704,0.104,10.296,4.696,10.4,10.4v324H0z"
	/>
<g>
	<path style="fill:#CFDCE5;" d="M512,355.2v41.6c-0.104,5.704-4.696,10.296-10.4,10.4H10.4c-5.704-0.104-10.296-4.696-10.4-10.4
		v-41.6H512z"/>
	<rect x="146.4" y="480.8" style="fill:#CFDCE5;" width="219.2" height="10.4"/>
</g>
<polygon style="fill:#AAC1CE;" points="328.8,480.8 183.2,480.8 193.6,407.2 318.4,407.2 "/>
<rect x="20.8" y="41.6" style="fill:#FFFFFF;" width="470.4" height="292.8"/>
<polygon style="fill:#8BA0AE;" points="318.4,407.2 193.6,407.2 187.792,448.28 320.272,420.424 "/>
<rect x="402.8" y="252.352" style="fill:#6B6B6B;" width="34.576" height="9.592"/>
<rect x="210.8" y="252.352" style="fill:#E04F5F;" width="51.856" height="9.592"/>
<rect x="89.792" y="252.352" style="fill:#AAC1CE;" width="69.152" height="9.592"/>
<rect x="89.792" y="183.2" style="fill:#25B6D2;" width="69.152" height="9.592"/>
<rect x="193.52" y="183.2" style="fill:#6B6B6B;" width="69.152" height="9.592"/>
<rect x="279.96" y="183.2" style="fill:#AAC1CE;" width="69.152" height="9.592"/>
<rect x="383.688" y="183.2" style="fill:#E04F5F;" width="69.144" height="9.592"/>
<rect x="331.824" y="217.76" style="fill:#25B6D2;" width="34.568" height="9.592"/>
<rect x="245.392" y="217.76" style="fill:#AAC1CE;" width="34.568" height="9.592"/>
<rect x="109.392" y="217.76" style="fill:#E04F5F;" width="65" height="9.592"/>
<rect x="89.792" y="286.92" style="fill:#6B6B6B;" width="172.864" height="9.592"/>
<rect x="314.48" y="286.92" style="fill:#25B6D2;" width="69.152" height="9.592"/>
<rect x="331.824" y="148.632" style="fill:#E04F5F;" width="34.568" height="9.592"/>
<rect x="245.392" y="148.632" style="fill:#25B6D2;" width="34.568" height="9.592"/>
<rect x="89.792" y="148.632" style="fill:#E04F5F;" width="103.72" height="9.592"/>
<rect x="279.96" y="79.488" style="fill:#6B6B6B;" width="86.44" height="9.592"/>
<g>
	<rect x="210.8" y="79.488" style="fill:#E04F5F;" width="34.584" height="9.592"/>
	<rect x="418.24" y="79.488" style="fill:#E04F5F;" width="34.568" height="9.592"/>
</g>
<rect x="72.48" y="79.488" style="fill:#AAC1CE;" width="103.72" height="9.592"/>
<rect x="297.28" y="114.056" style="fill:#25B6D2;" width="69.152" height="9.592"/>
<rect x="228.088" y="114.056" style="fill:#AAC1CE;" width="34.568" height="9.592"/>
<rect x="55.232" y="114.056" style="fill:#6B6B6B;" width="103.712" height="9.592"/>
<g>
</g>
<g>
</g>
<g>
</g>
<g>
</g>
<g>
</g>
<g>
</g>
<g>
</g>
<g>
</g>
<g>
</g>
<g>
</g>
<g>
</g>
<g>
</g>
<g>
</g>
<g>
</g>
<g>
</g>
</svg>
