<?xml version="1.0" encoding="iso-8859-1"?>
<!-- Generator: Adobe Illustrator 19.0.0, SVG Export Plug-In . SVG Version: 6.00 Build 0)  -->
<svg version="1.1" id="Capa_1" xmlns="http://www.w3.org/2000/svg" xmlns:xlink="http://www.w3.org/1999/xlink" x="0px" y="0px"
	 viewBox="0 0 512 512" style="enable-background:new 0 0 512 512;" xml:space="preserve">
<path style="fill:#E6AF78;" d="M339.688,175.461l-42.825-19.826c-5.689-2.634-9.356-8.511-9.356-14.996v-30.361h-63.014v30.361
	c0,6.485-3.666,12.361-9.355,14.995l-42.826,19.827c-11.378,5.268-18.711,17.021-18.711,29.991v81.047
	c0,2.686,1.369,5.188,3.632,6.635l4.893,3.13c3.188,2.039,7.293,1.44,9.952-1.252c14.958-15.145,33.637-25.898,54.216-31.209
	c3.536-0.913,6.076-3.978,6.076-7.63v-3.177c0-11.428,7.702-21.927,18.92-24.107c15.086-2.931,28.341,8.601,28.341,23.172v4.111
	c0,3.652,2.54,6.717,6.076,7.63c20.579,5.311,39.257,16.064,54.216,31.209c2.659,2.693,6.765,3.292,9.952,1.252l4.893-3.13
	c2.263-1.448,3.632-3.92,3.632-6.607c0-29.717-0.001-81.074-0.001-81.074C358.399,192.482,351.066,180.728,339.688,175.461z"/>
<path style="fill:#AAE1FF;" d="M339.688,175.461l-42.534-19.691l-30.014,30.014c-6.152,6.152-16.127,6.152-22.279,0l-30.015-30.014
	l-42.535,19.692c-11.378,5.268-18.711,17.021-18.711,29.991V286.5c0,2.686,1.369,5.188,3.632,6.635l4.893,3.13
	c3.188,2.039,7.293,1.44,9.952-1.252c14.958-15.145,33.637-25.898,54.216-31.209c3.536-0.913,6.076-3.978,6.076-7.63v-3.177
	c0-11.428,7.702-21.927,18.92-24.107c15.086-2.931,28.341,8.601,28.341,23.172v4.111c0,3.652,2.54,6.717,6.076,7.63
	c20.579,5.311,39.257,16.064,54.216,31.209c2.659,2.693,6.765,3.292,9.952,1.252l4.893-3.13c2.263-1.448,3.632-3.92,3.632-6.607
	c0-29.717-0.001-81.074-0.001-81.074C358.399,192.482,351.066,180.728,339.688,175.461z"/>
<path style="fill:#D29B6E;" d="M224.492,110.277v30.361c0,3.006-0.858,5.841-2.269,8.323c10.047,5.468,21.556,8.577,33.777,8.577
	c12.221,0,23.729-3.108,33.776-8.576c-1.412-2.482-2.269-5.319-2.269-8.325v-30.361L224.492,110.277z"/>
<path style="fill:#F0C087;" d="M256,141.785L256,141.785c-30.452,0-55.139-24.686-55.139-55.138V39.385h110.277v47.262
	C311.138,117.098,286.452,141.785,256,141.785z"/>
<path style="fill:#E6AF78;" d="M232.369,86.646V39.385h-31.508v47.262c0,30.452,24.687,55.138,55.138,55.138
	c5.478,0,10.759-0.826,15.754-2.313C248.983,132.689,232.369,111.62,232.369,86.646z"/>
<path style="fill:#825A5A;" d="M263.877,0h-15.754c-30.452,0-55.138,24.686-55.139,55.138v12.601c0,5.837,6.193,9.801,11.357,7.078
	c7.991-4.215,17.364-12.078,23.663-20.561c2.544-3.426,7.435-3.934,10.855-1.382c24.995,18.651,59.809,14.364,73.883,11.585
	c3.668-0.724,6.274-3.975,6.274-7.714v-1.606C319.015,24.686,294.329,0,263.877,0z"/>
<path style="fill:#6E4B53;" d="M204.341,74.817c7.991-4.215,17.364-12.078,23.663-20.561c0.964-1.299,2.308-2.039,3.738-2.491
	c-11.136-15.502-11.896-32.782-10.512-44.738c-16.844,9.436-28.246,27.432-28.246,48.112v12.6
	C192.985,73.576,199.178,77.54,204.341,74.817z"/>
<g>
	<path style="fill:#BEEBFF;" d="M256,228.431c2.775,0,5.401,0.569,7.877,1.452v-41.664c-4.87,2.827-10.884,2.827-15.754,0v41.664
		C250.599,229,253.225,228.431,256,228.431z"/>
	<path style="fill:#BEEBFF;" d="M355.563,191.882l-29.627,29.626c-4.432,4.432-6.922,10.443-6.922,16.71V278.3
		c7.523,4.755,14.55,10.322,20.892,16.707c2.672,2.691,6.789,3.291,9.984,1.247l4.878-3.121c2.263-1.448,3.632-3.949,3.632-6.635
		l-0.001-81.046C358.399,200.674,357.389,196.067,355.563,191.882z"/>
	<path style="fill:#BEEBFF;" d="M186.063,221.509l-29.627-29.627c-1.826,4.185-2.836,8.791-2.836,13.57v81.047
		c0,2.686,1.369,5.188,3.632,6.635l4.878,3.121c3.194,2.044,7.312,1.443,9.984-1.247c6.341-6.385,13.369-11.953,20.891-16.707
		v-40.082C192.985,231.951,190.495,225.941,186.063,221.509z"/>
</g>
<path style="fill:#B48764;" d="M256,512c-4.354,0-7.877-3.523-7.877-7.877V252.062c0-4.354,3.523-7.877,7.877-7.877
	s7.877,3.523,7.877,7.877v252.062C263.877,508.477,260.354,512,256,512z"/>
<g>
	<path style="fill:#966D50;" d="M248.123,283.968v23.696c2.589-0.288,5.212-0.464,7.877-0.464c2.665,0,5.288,0.176,7.877,0.464
		v-23.696c-2.604-0.216-5.218-0.399-7.877-0.399S250.727,283.752,248.123,283.968z"/>
	<path style="fill:#966D50;" d="M263.877,472.216V448.52c-2.589,0.288-5.212,0.464-7.877,0.464c-2.665,0-5.288-0.176-7.877-0.464
		v23.696c2.604,0.216,5.218,0.399,7.877,0.399S261.273,472.433,263.877,472.216z"/>
</g>
<path style="fill:#B48764;" d="M371.967,445.046c-2.177,3.771-6.99,5.06-10.76,2.883l-218.291-126.03
	c-3.771-2.177-5.06-6.99-2.883-10.76s6.99-5.06,10.76-2.883l218.292,126.031C372.855,436.463,374.144,441.276,371.967,445.046z"/>
<g>
	<path style="fill:#966D50;" d="M170.548,337.852l20.521,11.848c1.045-2.387,2.204-4.746,3.536-7.054
		c1.333-2.308,2.797-4.491,4.341-6.589l-20.521-11.848c-1.489,2.147-2.955,4.32-4.284,6.622
		C172.811,333.133,171.662,335.489,170.548,337.852z"/>
	<path style="fill:#966D50;" d="M341.452,418.333l-20.521-11.848c-1.045,2.386-2.204,4.746-3.536,7.054
		c-1.333,2.308-2.797,4.491-4.341,6.589l20.521,11.848c1.489-2.147,2.955-4.32,4.284-6.622
		C339.189,423.051,340.338,420.696,341.452,418.333z"/>
</g>
<path style="fill:#B48764;" d="M371.967,311.138c-2.177-3.771-6.99-5.06-10.76-2.883L142.916,434.286
	c-3.771,2.177-5.06,6.99-2.883,10.76s6.99,5.06,10.76,2.883l218.292-126.031C372.855,319.722,374.144,314.909,371.967,311.138z"/>
<g>
	<path style="fill:#966D50;" d="M170.548,418.333l20.521-11.848c1.045,2.386,2.204,4.746,3.536,7.054
		c1.333,2.308,2.797,4.491,4.341,6.589l-20.521,11.848c-1.489-2.147-2.955-4.32-4.284-6.622
		C172.811,423.051,171.662,420.696,170.548,418.333z"/>
	<path style="fill:#966D50;" d="M341.452,337.852L320.931,349.7c-1.045-2.387-2.204-4.746-3.536-7.054
		c-1.333-2.308-2.797-4.491-4.341-6.589l20.521-11.848c1.489,2.147,2.955,4.32,4.284,6.622
		C339.189,333.133,340.338,335.489,341.452,337.852z"/>
</g>
<g>
	<path style="fill:#C39772;" d="M256,480.492c-56.462,0-102.4-45.938-102.4-102.4s45.938-102.4,102.4-102.4
		s102.4,45.938,102.4,102.4S312.462,480.492,256,480.492z M256,291.446c-47.777,0-86.646,38.869-86.646,86.646
		s38.869,86.646,86.646,86.646s86.646-38.869,86.646-86.646S303.777,291.446,256,291.446z"/>
	<circle style="fill:#C39772;" cx="256" cy="378.09" r="23.631"/>
</g>
<circle style="fill:#966D50;" cx="256" cy="378.09" r="7.877"/>
<g>
</g>
<g>
</g>
<g>
</g>
<g>
</g>
<g>
</g>
<g>
</g>
<g>
</g>
<g>
</g>
<g>
</g>
<g>
</g>
<g>
</g>
<g>
</g>
<g>
</g>
<g>
</g>
<g>
</g>
</svg>
