<?xml version="1.0" encoding="iso-8859-1"?>
<!-- Generator: Adobe Illustrator 19.0.0, SVG Export Plug-In . SVG Version: 6.00 Build 0)  -->
<svg version="1.1" id="Capa_1" xmlns="http://www.w3.org/2000/svg" xmlns:xlink="http://www.w3.org/1999/xlink" x="0px" y="0px"
	 viewBox="0 0 511.999 511.999" style="enable-background:new 0 0 511.999 511.999;" xml:space="preserve">
<g>
	<g>
		<polygon style="fill:#96C8EB;" points="236.232,246 236.232,185.998 158.875,185.998 150.303,246 		"/>
		<path style="fill:#96C8EB;" d="M236.232,185.998V246h83.13l-24.937-58.185c-0.201-0.468-0.505-1.166-0.836-1.817H236.232z"/>
	</g>
	<path style="fill:#FF5A5A;" d="M319.362,246h-83.13h-85.93l8.572-60.002h77.357h57.357c0.331,0.651,0.635,1.349,0.836,1.817
		L319.362,246L319.362,246z M486.999,325.998V286v-16.251c0-12.374-8.99-22.379-19.999-22.5L351.998,246l-30.002-70.001
		C317.5,165.503,310.342,156,294.185,156H149.998c-10.998,0-18.445,9.11-20,19.999L120,246l-75.002,1.249
		c-11.021,0.181-20,10.126-20,22.5V286v39.998h54.998c9.121-12.144,23.644-19.999,40.004-19.999c27.613,0,49.997,22.386,49.997,50
		h182.001c0-27.614,22.385-50,50-50c16.359,0,30.881,7.855,40.004,19.999H486.999z"/>
	<g>
		<path style="fill:#FFDAAE;" d="M70,355.999c0-11.255,3.719-21.643,9.996-30.001H24.998H10v14.999
			c0,8.252,6.748,15.002,14.998,15.002H70z"/>
		<path style="fill:#FFDAAE;" d="M442.002,325.998c6.276,8.358,9.996,18.746,9.996,30.001h35.001c8.25,0,14.999-6.75,14.999-15.002
			v-14.999h-14.999H442.002z"/>
	</g>
	<path style="fill:#986E62;" d="M451.998,355.999c0-11.255-3.72-21.643-9.996-30.001c-9.123-12.144-23.645-19.999-40.004-19.999
		c-27.615,0-50,22.386-50,50s22.385,50,50,50C429.611,405.999,451.998,383.613,451.998,355.999L451.998,355.999z M401.998,336.004
		c11.043,0,19.994,8.952,19.994,19.995c0,11.044-8.951,19.995-19.994,19.995c-11.041,0-19.994-8.952-19.994-19.995
		S390.957,336.004,401.998,336.004z"/>
	<g>
		<circle style="fill:#FFDAAE;" cx="402" cy="356" r="19.994"/>
		<circle style="fill:#FFDAAE;" cx="120" cy="356" r="19.995"/>
	</g>
	<path style="fill:#986E62;" d="M120,336.004c11.041,0,19.994,8.952,19.994,19.995c0,11.044-8.953,19.995-19.994,19.995
		c-11.044,0-19.996-8.952-19.996-19.995S108.956,336.004,120,336.004L120,336.004z M169.997,355.999c0-27.614-22.384-50-49.997-50
		c-16.36,0-30.883,7.855-40.004,19.999C73.719,334.356,70,344.744,70,355.999c0,27.45,22.121,49.733,49.507,49.996l0.493,0.004
		C147.613,405.999,169.997,383.613,169.997,355.999z"/>
</g>
<g>
	<path style="fill:#000001;" d="M501.998,315.998h-4.999v-46.25c0-17.74-13.409-32.319-29.891-32.499l-108.486-1.178l-27.433-64.01
		C328.428,165.615,320.025,146,294.185,146H172.447l-18.877-43.945c-2.18-5.075-8.059-7.421-13.135-5.241
		c-5.074,2.18-7.421,8.06-5.24,13.135L150.68,146h-0.682c-15.201,0-27.496,11.755-29.898,28.585l-8.793,61.559l-66.473,1.107
		c-16.451,0.27-29.836,14.848-29.836,32.498v46.25H10c-5.523,0-10,4.477-10,10v14.999C0,354.785,11.214,366,24.998,366h35.851
		c1.923,11.407,7.067,21.731,14.474,29.996H38.965c-5.523,0-10,4.477-10,10s4.477,10,10,10h80.881c0.051,0,0.101,0.004,0.154,0.004
		c29.676,0,54.373-21.661,59.15-50h163.696c4.776,28.337,29.474,49.998,59.15,50c0,0,0.001,0,0.002,0h71.034c5.522,0,10-4.477,10-10
		s-4.478-10-10-10h-26.36c7.41-8.266,12.555-18.591,14.479-30H487c13.784,0,24.999-11.216,24.999-25.002v-14.999
		C511.998,320.475,507.521,315.998,501.998,315.998z M34.998,296h6.613c5.523,0,10-4.477,10-10s-4.477-10-10-10h-6.613v-6.251
		c0-6.801,4.559-12.409,10.166-12.501l75.002-1.249c4.912-0.082,9.038-3.72,9.732-8.584l10-70.002
		c0.81-5.681,4.248-11.413,10.1-11.413h15.832c0.012,0,0.022,0.003,0.033,0.003c0.017,0,0.033-0.003,0.049-0.003h128.273
		c9.221,0,14.268,3.777,18.619,13.939l30.002,70.001c1.56,3.641,5.121,6.017,9.082,6.06l115.002,1.249
		c5.574,0.061,10.108,5.668,10.108,12.5V276h-6.616c-5.522,0-10,4.477-10,10s4.477,10,10,10h6.616v19.998h-30.327
		c-10.994-12.265-26.944-19.999-44.672-19.999c-29.678,0-54.377,21.661-59.153,50H179.15c-4.777-28.339-29.475-50-59.15-50
		c-17.729,0-33.68,7.734-44.673,19.999H34.998V296z M20,340.997v-4.999h43.439c-1.141,3.217-2.011,6.56-2.591,10.001h-35.85
		C22.289,345.999,20,343.708,20,340.997z M120.051,395.998c-0.017-0.001-0.033-0.003-0.051-0.003h-0.154
		C97.86,395.911,80,378.004,80,355.999c0-22.056,17.943-40,40-40c22.047,0,39.984,17.93,39.998,39.974
		c0,0.009-0.001,0.017-0.001,0.026s0.001,0.017,0.001,0.026C159.984,378.052,142.074,395.97,120.051,395.998z M361.998,355.999
		c0-22.056,17.944-40,40.002-40c22.047,0,39.984,17.93,39.999,39.974c0,0.009-0.001,0.017-0.001,0.026s0.001,0.017,0.001,0.026
		c-0.015,22.044-17.952,39.974-39.999,39.974C379.942,395.999,361.998,378.055,361.998,355.999z M491.998,340.997
		c0,2.711-2.289,5.002-4.999,5.002H461.15c-0.58-3.441-1.45-6.784-2.592-10.001h33.439v4.999H491.998z"/>
	<path style="fill:#000001;" d="M402,326.004c-16.54,0-29.996,13.456-29.996,29.995c0,16.54,13.456,29.995,29.996,29.995
		c16.539,0,29.994-13.456,29.994-29.995S418.539,326.004,402,326.004z M402,365.994c-5.512,0-9.996-4.484-9.996-9.995
		s4.484-9.995,9.996-9.995c5.511,0,9.994,4.484,9.994,9.995C411.994,361.51,407.511,365.994,402,365.994z"/>
	<path style="fill:#000001;" d="M120,326.004c-16.54,0-29.996,13.456-29.996,29.995c0,16.54,13.456,29.995,29.996,29.995
		c16.539,0,29.994-13.456,29.994-29.995S136.539,326.004,120,326.004z M120,365.994c-5.512,0-9.996-4.484-9.996-9.995
		s4.484-9.995,9.996-9.995c5.511,0,9.994,4.484,9.994,9.995C129.994,361.51,125.511,365.994,120,365.994z"/>
	<path style="fill:#000001;" d="M150.303,256h75.93v33.066c0,5.523,4.476,10,10,10c5.523,0,10-4.477,10-10V256h73.13
		c3.361,0,6.498-1.689,8.349-4.495c1.85-2.806,2.167-6.354,0.843-9.444l-24.941-58.193c-0.283-0.661-0.666-1.531-1.111-2.406
		c-1.707-3.352-5.15-5.464-8.912-5.464H158.875c-4.977,0-9.196,3.659-9.9,8.586l-8.57,60.002c-0.41,2.87,0.445,5.776,2.344,7.966
		C144.648,254.742,147.404,256,150.303,256z M304.197,236h-57.965v-40.002h40.82L304.197,236z M167.547,195.998h58.686V236h-64.399
		L167.547,195.998z"/>
	<path style="fill:#000001;" d="M236.23,307.795c-5.523,0-10,4.477-10,10v0.238c0,5.523,4.477,10,10,10c5.524,0,10-4.477,10-10
		v-0.238C246.23,312.272,241.754,307.795,236.23,307.795z"/>
	<path style="fill:#000001;" d="M10.236,395.995H10c-5.523,0-10,4.477-10,10s4.477,10,10,10h0.236c5.522,0,10-4.477,10-10
		S15.759,395.995,10.236,395.995z"/>
	<path style="fill:#000001;" d="M501.998,395.999h-0.236c-5.523,0-10,4.477-10,10s4.477,10,10,10h0.236c5.523,0,10-4.477,10-10
		C511.998,400.476,507.521,395.999,501.998,395.999z"/>
</g>
<g>
</g>
<g>
</g>
<g>
</g>
<g>
</g>
<g>
</g>
<g>
</g>
<g>
</g>
<g>
</g>
<g>
</g>
<g>
</g>
<g>
</g>
<g>
</g>
<g>
</g>
<g>
</g>
<g>
</g>
</svg>
