<?xml version="1.0" encoding="iso-8859-1"?>
<!-- Generator: Adobe Illustrator 19.0.0, SVG Export Plug-In . SVG Version: 6.00 Build 0)  -->
<svg version="1.1" id="Capa_1" xmlns="http://www.w3.org/2000/svg" xmlns:xlink="http://www.w3.org/1999/xlink" x="0px" y="0px"
	 viewBox="0 0 512 512" style="enable-background:new 0 0 512 512;" xml:space="preserve">
<path style="fill:#C9C6CA;" d="M472,220h-96c-8.837,0-16-7.163-16-16v-64c0-8.837,7.163-16,16-16h96c8.837,0,16,7.163,16,16v64
	C488,212.836,480.836,220,472,220z"/>
<rect x="32" y="260" style="fill:#B48764;" width="448" height="136"/>
<path style="fill:#FAD7A5;" d="M311.155,191.578l-34.733-17.367c-2.71-1.355-4.422-4.125-4.422-7.156V148h-32v19.055
	c0,3.03-1.712,5.8-4.422,7.156l-34.733,17.367c-5.42,2.71-8.844,8.25-8.844,14.31V252h128v-46.111
	C320,199.828,316.576,194.288,311.155,191.578z"/>
<path style="fill:#AAE1FF;" d="M192,252h128v-46.111c0-6.06-3.424-11.601-8.845-14.311l-28.488-14.245l-21.01,21.01
	c-3.124,3.124-8.19,3.124-11.314,0l-21.01-21.01l-28.489,14.245c-5.42,2.71-8.844,8.25-8.844,14.31V252z"/>
<path style="fill:#F0C891;" d="M256,172c5.728,0,11.195-1.055,16.288-2.896c-0.176-0.661-0.288-1.346-0.288-2.049V148h-32v19.055
	c0,0.704-0.112,1.388-0.288,2.049C244.805,170.945,250.272,172,256,172z"/>
<path style="fill:#FFE1B4;" d="M256,156L256,156c-17.673,0-32-14.327-32-32v-16c0-17.673,14.327-32,32-32l0,0
	c17.673,0,32,14.327,32,32v16C288,141.673,273.673,156,256,156z"/>
<path style="fill:#FAD7A5;" d="M248,132v-32c0-9.458,4.182-17.869,10.706-23.728C257.799,76.195,256.927,76,256,76
	c-17.673,0-32,14.327-32,32v16c0,17.673,14.327,32,32,32c0.927,0,1.799-0.195,2.706-0.272C252.182,149.87,248,141.458,248,132z"/>
<path style="fill:#AF876E;" d="M288,116c-32,0-64-8-64-8l0,0c0-17.673,14.327-32,32-32l0,0c17.673,0,32,14.327,32,32V116z"/>
<path style="fill:#A07B64;" d="M258.705,76.272C257.799,76.195,256.927,76,256,76c-17.673,0-32,14.327-32,32
	c0,0,9.822,2.449,24,4.638V100C248,90.541,252.182,82.131,258.705,76.272z"/>
<g>
	<path style="fill:#BEEBFF;" d="M220,230.627c0-4.243-1.686-8.313-4.686-11.314l-21.204-21.204
		c-1.313,2.344-2.109,4.988-2.109,7.778V252h28v-21.373H220z"/>
	<path style="fill:#BEEBFF;" d="M292,230.627c0-4.243,1.686-8.313,4.686-11.314l21.204-21.204c1.313,2.344,2.109,4.988,2.109,7.778
		V252h-28L292,230.627L292,230.627z"/>
	<path style="fill:#BEEBFF;" d="M250.343,198.343L248,196v56h16v-56l-2.343,2.343C258.533,201.467,253.467,201.467,250.343,198.343z
		"/>
</g>
<path style="fill:#DBD9DC;" d="M440.72,179.204c-0.409-4.089-3.85-7.204-7.96-7.204h-17.52c-4.11,0-7.551,3.114-7.96,7.204L400,252
	h48L440.72,179.204z"/>
<path style="fill:#C9C6CA;" d="M40,260c-4.422,0-8-3.578-8-8V130.625C32,113.742,45.742,100,62.625,100
	c8.18,0,15.875,3.188,21.656,8.969l17.375,17.375c3.125,3.125,3.125,8.187,0,11.312s-8.188,3.125-11.313,0l-17.375-17.375
	C70.25,117.562,66.477,116,62.625,116C54.562,116,48,122.562,48,130.625V252C48,256.422,44.422,260,40,260z"/>
<path style="fill:#DBD9DC;" d="M122.343,135.716l-22.627,22.627c-3.124,3.124-8.189,3.124-11.314,0l0,0
	c-9.373-9.373-9.373-24.569,0-33.941l0,0c9.373-9.373,24.569-9.373,33.941,0l0,0C125.467,127.526,125.467,132.591,122.343,135.716z"
	/>
<path style="fill:#AAE1FF;" d="M80,228v16c0,4.418,3.582,8,8,8h64c4.418,0,8-3.582,8-8v-16c0-4.418-3.582-8-8-8H88
	C83.582,220,80,223.582,80,228z"/>
<path style="fill:#AF876E;" d="M80,196v16c0,4.418,3.582,8,8,8h48c4.418,0,8-3.582,8-8v-16c0-4.418-3.582-8-8-8H88
	C83.582,188,80,191.582,80,196z"/>
<path style="fill:#C39772;" d="M504,244H8c-4.422,0-8,3.578-8,8s3.578,8,8,8h8v168c0,4.422,3.578,8,8,8s8-3.578,8-8V260h448v168
	c0,4.422,3.578,8,8,8s8-3.578,8-8V260h8c4.422,0,8-3.578,8-8S508.422,244,504,244z"/>
<g>
	<rect x="16" y="260" style="fill:#B48764;" width="16" height="16"/>
	<rect x="480" y="260" style="fill:#B48764;" width="16" height="16"/>
</g>
<rect x="32" y="260" style="fill:#966D50;" width="448" height="16"/>
<g>
</g>
<g>
</g>
<g>
</g>
<g>
</g>
<g>
</g>
<g>
</g>
<g>
</g>
<g>
</g>
<g>
</g>
<g>
</g>
<g>
</g>
<g>
</g>
<g>
</g>
<g>
</g>
<g>
</g>
</svg>
