<?xml version="1.0" encoding="iso-8859-1"?>
<!-- Generator: Adobe Illustrator 19.0.0, SVG Export Plug-In . SVG Version: 6.00 Build 0)  -->
<svg version="1.1" id="Capa_1" xmlns="http://www.w3.org/2000/svg" xmlns:xlink="http://www.w3.org/1999/xlink" x="0px" y="0px"
	 viewBox="0 0 512 512" style="enable-background:new 0 0 512 512;" xml:space="preserve">
<g>
	<path style="fill:#4B3F4E;" d="M338.581,454.194h-66.065c-4.561,0-8.258-3.697-8.258-8.258V388.13h-16.516v57.806
		c0,4.561-3.697,8.258-8.258,8.258h-66.065c-4.561,0-8.258,3.697-8.258,8.258c0,4.56,3.697,8.258,8.258,8.258H338.58
		c4.561,0,8.258-3.698,8.258-8.258C346.839,457.891,343.142,454.194,338.581,454.194z"/>
	<path style="fill:#4B3F4E;" d="M165.161,305.548c-31.871,0-57.806-25.935-57.806-57.806v-24.774h16.516v24.774
		c0,22.766,18.524,41.29,41.29,41.29V305.548z"/>
	<path style="fill:#4B3F4E;" d="M346.839,305.548c31.871,0,57.806-25.935,57.806-57.806v-24.774h-16.516v24.774
		c0,22.766-18.524,41.29-41.29,41.29V305.548z"/>
</g>
<path style="fill:#5D5360;" d="M264.258,396.387h-16.516c-4.561,0-8.258-3.697-8.258-8.258V222.968h33.032v165.161
	C272.516,392.69,268.819,396.387,264.258,396.387z"/>
<g>
	<rect x="239.48" y="222.97" style="fill:#4B3F4E;" width="33.03" height="24.774"/>
	<rect x="239.48" y="305.55" style="fill:#4B3F4E;" width="33.03" height="24.774"/>
</g>
<g>
	<path style="fill:#867E88;" d="M329.125,231.226c18.705,0,33.678-15.518,33.011-34.211l-5.899-165.161
		C355.603,14.08,341.01,0,323.226,0H188.777c-17.784,0-32.377,14.08-33.011,31.853l-5.899,165.161
		c-0.667,18.694,14.306,34.211,33.011,34.211h146.247V231.226z"/>
	<path style="fill:#867E88;" d="M346.839,313.806H165.161c-13.682,0-24.774-11.092-24.774-24.774l0,0
		c0-13.682,11.092-24.774,24.774-24.774h181.677c13.682,0,24.774,11.092,24.774,24.774l0,0
		C371.613,302.715,360.521,313.806,346.839,313.806z"/>
</g>
<g>
	<path style="fill:#6F6571;" d="M165.161,512L165.161,512c-9.122,0-16.516-7.395-16.516-16.516v-16.516
		c0-9.122,7.395-16.516,16.516-16.516l0,0c9.122,0,16.516,7.395,16.516,16.516v16.516C181.677,504.605,174.283,512,165.161,512z"/>
	<path style="fill:#6F6571;" d="M346.839,512L346.839,512c-9.122,0-16.516-7.395-16.516-16.516v-16.516
		c0-9.122,7.395-16.516,16.516-16.516l0,0c9.122,0,16.516,7.395,16.516,16.516v16.516C363.355,504.605,355.96,512,346.839,512z"/>
	<path style="fill:#6F6571;" d="M132.129,239.484h-16.516c-9.122,0-16.516-7.395-16.516-16.516l0,0
		c0-9.122,7.395-16.516,16.516-16.516h16.516c9.122,0,16.516,7.395,16.516,16.516l0,0
		C148.645,232.089,141.251,239.484,132.129,239.484z"/>
	<path style="fill:#6F6571;" d="M379.871,239.484h16.516c9.122,0,16.516-7.395,16.516-16.516l0,0
		c0-9.122-7.395-16.516-16.516-16.516h-16.516c-9.122,0-16.516,7.395-16.516,16.516l0,0
		C363.355,232.089,370.749,239.484,379.871,239.484z"/>
	<path style="fill:#6F6571;" d="M274.318,206.452c-46.764,0-84.197-38.794-82.528-85.528L195.856,7.08
		c0.087-2.447,0.49-4.8,1.079-7.079h-8.158c-17.784,0-32.376,14.08-33.011,31.853l-5.899,165.161
		c-0.668,18.694,14.306,34.211,33.011,34.211h146.247c15.416,0,28.145-10.602,31.825-24.774L274.318,206.452L274.318,206.452z"/>
	<path style="fill:#6F6571;" d="M140.387,289.032c0,13.682,11.092,24.774,24.774,24.774h181.677
		c13.682,0,24.774-11.092,24.774-24.774H140.387z"/>
</g>
<g>
</g>
<g>
</g>
<g>
</g>
<g>
</g>
<g>
</g>
<g>
</g>
<g>
</g>
<g>
</g>
<g>
</g>
<g>
</g>
<g>
</g>
<g>
</g>
<g>
</g>
<g>
</g>
<g>
</g>
</svg>
