<?xml version="1.0" encoding="iso-8859-1"?>
<!-- Generator: Adobe Illustrator 19.0.0, SVG Export Plug-In . SVG Version: 6.00 Build 0)  -->
<svg version="1.1" id="Capa_1" xmlns="http://www.w3.org/2000/svg" xmlns:xlink="http://www.w3.org/1999/xlink" x="0px" y="0px"
	 viewBox="0 0 512 512" style="enable-background:new 0 0 512 512;" xml:space="preserve">
<path style="fill:#E6646E;" d="M328.38,307.289c6.024-1.916,6.258-10.357,0.342-12.587c-11.281-4.251-23.676-9.079-23.767-9.803
	c-4.435-35.509-36.968-62.281-74.692-57.177c-30.284,4.097-53.045,27.494-56.422,57.866c-4.434,39.877,26.662,73.637,65.642,73.637
	c28.503,0,52.717-18.085,61.981-43.378L328.38,307.289z"/>
<path style="fill:#EDEBED;" d="M264.258,28.903H115.613c-18.243,0-33.032,14.789-33.032,33.032v74.323
	c0,18.243,14.789,33.032,33.032,33.032h82.581c0,0-3.901,15.606-11.705,30.728c-3.585,6.946,3.538,14.409,10.73,11.346
	c16.184-6.893,37.029-19.584,50.523-42.074h16.516c18.243,0,33.032-14.789,33.032-33.032V61.935
	C297.29,43.692,282.501,28.903,264.258,28.903z"/>
<path style="fill:#5D5360;" d="M247.742,86.71h-16.516c-4.565,0-8.258-3.698-8.258-8.258s3.694-8.258,8.258-8.258h16.516
	c4.565,0,8.258,3.698,8.258,8.258S252.306,86.71,247.742,86.71z"/>
<g>
	<path style="fill:#867E88;" d="M198.193,86.71h-66.065c-4.565,0-8.258-3.698-8.258-8.258s3.694-8.258,8.258-8.258h66.065
		c4.565,0,8.258,3.698,8.258,8.258S202.758,86.71,198.193,86.71z"/>
	<path style="fill:#867E88;" d="M247.742,128h-66.065c-4.565,0-8.258-3.698-8.258-8.258c0-4.56,3.694-8.258,8.258-8.258h66.065
		c4.565,0,8.258,3.698,8.258,8.258S252.306,128,247.742,128z"/>
</g>
<path style="fill:#5D5360;" d="M148.645,128h-16.516c-4.565,0-8.258-3.698-8.258-8.258c0-4.56,3.694-8.258,8.258-8.258h16.516
	c4.565,0,8.258,3.698,8.258,8.258S153.209,128,148.645,128z"/>
<path style="fill:#FAD7A5;" d="M160.243,359.446l-33.914-12.718c-6.446-2.417-10.717-8.58-10.717-15.465v-13.328H66.065v13.329
	c0,6.885-4.271,13.047-10.717,15.464l-33.914,12.718C8.541,364.281,0,376.606,0,390.375v76.205c0,9.122,7.395,16.516,16.516,16.516
	h148.645c9.122,0,16.516-7.395,16.516-16.516v-76.205C181.677,376.606,173.136,364.281,160.243,359.446z"/>
<path style="fill:#F0C891;" d="M90.839,342.71c9.273,0,18.117-1.783,26.31-4.899c-0.897-2.047-1.537-4.217-1.537-6.547v-13.328
	H66.065v13.329c0,2.33-0.639,4.498-1.536,6.546C72.721,340.926,81.566,342.71,90.839,342.71z"/>
<path style="fill:#6F6571;" d="M16.516,483.097h148.645c9.122,0,16.516-7.395,16.516-16.516v-76.205
	c0-13.769-8.541-26.094-21.434-30.929l-32.618-12.232l-25.107,25.107c-6.45,6.45-16.907,6.45-23.357,0l-25.107-25.107
	l-32.619,12.232C8.541,364.281,0,376.606,0,390.375v76.206C0,475.702,7.395,483.097,16.516,483.097z"/>
<path style="fill:#FFE1B4;" d="M90.839,326.194L90.839,326.194c-31.926,0-57.807-25.881-57.807-57.806v-24.774
	c0-31.926,25.881-57.806,57.806-57.806l0,0c31.926,0,57.806,25.881,57.806,57.806v24.774
	C148.645,300.313,122.764,326.194,90.839,326.194z"/>
<path style="fill:#FAD7A5;" d="M66.065,268.387v-24.774c0-26.182,17.418-48.271,41.29-55.381
	c-5.236-1.559-10.773-2.425-16.516-2.425c-31.925,0-57.807,25.881-57.807,57.807v24.774c0,31.925,25.881,57.806,57.807,57.806
	c5.743,0,11.28-0.866,16.516-2.425C83.482,316.658,66.065,294.569,66.065,268.387z"/>
<g>
	<path style="fill:#867E88;" d="M25.776,393.26L5.214,372.698C1.921,377.879,0,383.951,0,390.375v76.206
		c0,9.121,7.395,16.516,16.516,16.516h16.516v-72.319C33.032,404.207,30.422,397.906,25.776,393.26z"/>
	<path style="fill:#867E88;" d="M155.901,393.26l20.563-20.562c3.293,5.181,5.214,11.253,5.214,17.677v76.206
		c0,9.121-7.395,16.516-16.516,16.516h-16.516v-72.319C148.645,404.207,151.255,397.906,155.901,393.26z"/>
	<path style="fill:#867E88;" d="M82.581,374.874v108.223h16.516V374.874C93.991,377.838,87.686,377.838,82.581,374.874z"/>
</g>
<circle style="fill:#DEAF73;" cx="90.84" cy="185.81" r="33.03"/>
<path style="fill:#D59F63;" d="M33.032,243.613v18.532c9.147-4.332,20.351-11.165,28.923-21.33c2.505-2.97,6.789-3.583,10.176-1.68
	c10.887,6.116,36.415,17.764,76.514,20.4v-15.921c0-31.926-25.881-57.806-57.806-57.806l0,0
	C58.913,185.806,33.032,211.687,33.032,243.613z"/>
<path style="fill:#CD915A;" d="M59.28,195.217c-15.792,10.319-26.248,28.124-26.248,48.396v18.532
	c9.147-4.332,20.351-11.165,28.923-21.33c1.314-1.558,3.12-2.426,5.026-2.664C60.864,226.525,56.086,211.364,59.28,195.217z"/>
<path style="fill:#B48764;" d="M492.383,344.983l-44.897-20.786c-5.965-2.761-9.809-8.923-9.809-15.722v-31.83l-66.064,0.001v31.83
	c0,6.799-3.844,12.96-9.808,15.721l-44.898,20.786c-11.929,5.523-19.616,17.845-19.616,31.443v89.467
	c0,9.502,7.395,17.204,16.516,17.204h181.677c9.122,0,16.516-7.703,16.516-17.204v-89.466
	C512,362.828,504.312,350.506,492.383,344.983z"/>
<path style="fill:#C9C6CA;" d="M313.807,483.097h181.677c9.121,0,16.516-7.703,16.516-17.204v-89.466
	c0-13.598-7.688-25.921-19.617-31.444l-44.592-20.644l-31.467,31.467c-6.45,6.45-16.907,6.45-23.357,0L361.5,324.338l-44.593,20.645
	c-11.929,5.523-19.616,17.845-19.616,31.443v89.467C297.291,475.394,304.686,483.097,313.807,483.097z"/>
<path style="fill:#966D50;" d="M371.614,276.646v31.83c0,3.151-0.899,6.124-2.379,8.726c10.533,5.732,22.599,8.992,35.411,8.992
	s24.877-3.259,35.41-8.991c-1.48-2.602-2.379-5.576-2.379-8.727v-31.83L371.614,276.646z"/>
<path style="fill:#C39772;" d="M404.646,309.677L404.646,309.677c-31.926,0-57.807-25.881-57.807-57.806v-49.548h115.613v49.548
	C462.453,283.797,436.572,309.677,404.646,309.677z"/>
<path style="fill:#B48764;" d="M379.872,251.871v-49.548H346.84v49.548c0,31.925,25.881,57.807,57.806,57.807
	c5.743,0,11.28-0.866,16.516-2.425C397.29,300.142,379.872,278.053,379.872,251.871z"/>
<path style="fill:#5C414B;" d="M412.904,161.032h-16.516c-31.926,0-57.807,25.881-57.807,57.807v13.211
	c0,6.12,6.493,10.275,11.906,7.42c8.378-4.419,18.204-12.663,24.808-21.556c2.667-3.592,7.795-4.124,11.38-1.449
	c26.204,19.554,62.703,15.059,77.458,12.145c3.845-0.759,6.578-4.168,6.578-8.087v-1.684
	C470.711,186.913,444.83,161.032,412.904,161.032z"/>
<path style="fill:#503441;" d="M350.488,239.469c8.378-4.419,18.204-12.663,24.807-21.556c1.011-1.361,2.419-2.138,3.919-2.612
	c-11.675-16.252-12.471-34.368-11.021-46.903c-17.659,9.893-29.612,28.76-29.612,50.441v13.21
	C338.581,238.169,345.074,242.324,350.488,239.469z"/>
<g>
	<path style="fill:#DBD9DC;" d="M338.581,410.778c0-6.571-2.61-12.872-7.256-17.518l-31.061-31.061
		c-1.914,4.387-2.973,9.217-2.973,14.226v89.467c0,9.502,7.395,17.205,16.516,17.205h24.774L338.581,410.778L338.581,410.778z"/>
	<path style="fill:#DBD9DC;" d="M470.71,410.778c0-6.571,2.61-12.872,7.256-17.518l31.061-31.061
		c1.914,4.387,2.973,9.217,2.973,14.226v89.467c0,9.502-7.395,17.205-16.516,17.205H470.71V410.778z"/>
	<path style="fill:#DBD9DC;" d="M396.388,358.358v124.739h16.516V358.358C407.798,361.322,401.493,361.322,396.388,358.358z"/>
</g>
<g>
	<path style="fill:#FFFFFF;" d="M239.484,309.677c-4.565,0-8.258-3.698-8.258-8.258v-41.29c0-4.56,3.694-8.258,8.258-8.258
		c4.565,0,8.258,3.698,8.258,8.258v41.29C247.742,305.98,244.048,309.677,239.484,309.677z"/>
	<path style="fill:#FFFFFF;" d="M239.564,334.452h-0.081c-4.565,0-8.258-3.698-8.258-8.258s3.694-8.258,8.258-8.258
		c4.565,0,8.298,3.698,8.298,8.258C247.782,330.754,244.129,334.452,239.564,334.452z"/>
</g>
<g>
</g>
<g>
</g>
<g>
</g>
<g>
</g>
<g>
</g>
<g>
</g>
<g>
</g>
<g>
</g>
<g>
</g>
<g>
</g>
<g>
</g>
<g>
</g>
<g>
</g>
<g>
</g>
<g>
</g>
</svg>
