<?xml version="1.0" encoding="iso-8859-1"?>
<!-- Generator: Adobe Illustrator 19.0.0, SVG Export Plug-In . SVG Version: 6.00 Build 0)  -->
<svg version="1.1" id="Layer_1" xmlns="http://www.w3.org/2000/svg" xmlns:xlink="http://www.w3.org/1999/xlink" x="0px" y="0px"
	 viewBox="0 0 512 512" style="enable-background:new 0 0 512 512;" xml:space="preserve">
<g>
	<circle style="fill:#FF9839;" cx="141.851" cy="141.851" r="131.651"/>
	<circle style="fill:#FF9839;" cx="370.15" cy="370.15" r="131.651"/>
</g>
<g>
	<path style="fill:#4C1D1D;" d="M283.693,141.846C283.693,63.633,220.061,0,141.846,0S0,63.633,0,141.846
		s63.632,141.846,141.846,141.846S283.693,220.061,283.693,141.846z M20.398,141.846c0-66.967,54.481-121.448,121.448-121.448
		s121.448,54.481,121.448,121.448s-54.481,121.448-121.448,121.448S20.398,208.813,20.398,141.846z"/>
	<path style="fill:#4C1D1D;" d="M148.003,218.864v-6.883c21.865-3.037,36.847-16.804,36.847-41.707
		c0-27.534-19.233-36.442-36.847-42.92V86.255c14.172,1.012,19.436,7.491,24.295,7.491c6.074,0,8.908-7.694,8.908-11.54
		c0-9.921-19.436-14.172-33.202-14.577v-5.466c0-2.429-3.037-4.656-6.074-4.656c-3.442,0-5.871,2.228-5.871,4.656v5.872
		c-19.233,2.024-38.466,12.147-38.466,37.656c0,25.914,20.245,33.204,38.466,39.681v47.577c-20.65-1.62-26.117-15.791-32.798-15.791
		c-5.061,0-9.313,6.681-9.313,11.539c0,9.921,17.006,23.485,42.111,23.89v6.277c0,2.429,2.429,4.656,5.871,4.656
		C144.965,223.52,148.003,221.293,148.003,218.864z M146.788,149.825c9.921,4.252,17.816,9.921,17.816,22.675
		c0,11.539-6.883,18.019-17.816,20.042V149.825z M137.272,123.507c-10.731-4.05-19.436-8.301-19.436-19.841
		c0-10.528,8.098-15.589,19.436-17.007V123.507z"/>
	<path style="fill:#4C1D1D;" d="M370.154,228.307c-78.215,0-141.846,63.633-141.846,141.846S291.939,512,370.154,512
		S512,448.367,512,370.154S448.368,228.307,370.154,228.307z M370.154,491.602c-66.967,0-121.448-54.481-121.448-121.448
		s54.481-121.448,121.448-121.448s121.448,54.481,121.448,121.448S437.121,491.602,370.154,491.602z"/>
	<path style="fill:#4C1D1D;" d="M370.773,316.155c17.296,0,23.733,11.061,23.733,21.519c0,4.626,3.218,6.638,10.659,6.638
		c7.24,0,10.659-2.011,10.659-9.854c0-22.727-18.905-37.207-45.654-37.207c-24.939,0-44.648,12.268-44.648,44.85v7.642h-10.659
		c-4.023,0-6.839,3.419-6.839,8.045c0,4.424,2.816,7.441,6.839,7.441h10.659v16.088h-10.659c-4.023,0-6.839,3.42-6.839,8.045
		c0,4.425,2.816,7.441,6.839,7.441h10.659v5.833c0,26.95,16.894,42.839,44.648,42.839c26.748,0,45.654-15.085,45.654-38.213
		c0-8.044-3.218-10.055-10.659-10.055c-7.24,0-10.659,1.81-10.659,6.638c-0.201,12.067-6.839,22.726-23.531,22.726
		c-18.301,0-24.134-12.871-24.134-23.933v-5.833h24.536c3.62,0,7.24-3.217,7.24-7.642c0-4.424-3.62-7.843-7.24-7.843H346.84V365.23
		h24.536c3.62,0,7.24-3.218,7.24-7.642c0-4.425-3.62-7.843-7.24-7.843H346.84v-7.642
		C346.839,324.401,355.487,316.155,370.773,316.155z"/>
	<path style="fill:#4C1D1D;" d="M440.304,190.147c1.474,4.196,5.414,6.821,9.623,6.821c1.122,0,2.262-0.187,3.38-0.579
		c5.314-1.866,8.109-7.688,6.242-13.003c-1.147-3.268-2.395-6.554-3.704-9.768c-2.128-5.215-8.077-7.718-13.296-5.592
		c-5.216,2.128-7.72,8.08-5.592,13.296C438.14,184.225,439.266,187.194,440.304,190.147z"/>
	<path style="fill:#4C1D1D;" d="M321.684,107.742c1.868,3.342,5.337,5.225,8.912,5.225c1.684,0,3.392-0.418,4.967-1.297
		c4.917-2.749,6.674-8.962,3.927-13.879l-13.554-24.25c36.163,13.534,68.113,38.229,90.4,70.003
		c1.985,2.829,5.147,4.344,8.359,4.344c2.023,0,4.065-0.601,5.847-1.849c4.611-3.235,5.728-9.595,2.494-14.208
		c-24.373-34.75-59.211-61.845-98.68-76.916l20.507-11.462c4.917-2.749,6.675-8.962,3.927-13.879
		c-2.748-4.917-8.962-6.673-13.879-3.928l-43.758,24.457c-2.361,1.32-4.101,3.524-4.837,6.127c-0.736,2.603-0.409,5.391,0.911,7.753
		L321.684,107.742z"/>
	<path style="fill:#4C1D1D;" d="M191.598,398.277c-2.748-4.917-8.962-6.676-13.879-3.927c-4.917,2.748-6.675,8.962-3.927,13.878
		l13.906,24.879c-51.972-20.623-93.332-63.804-111.44-116.842c-1.821-5.33-7.619-8.174-12.948-6.356
		c-5.331,1.821-8.177,7.618-6.357,12.948c10.327,30.244,27.741,58.287,50.36,81.099c20.21,20.38,44.642,36.629,71.13,47.416
		l-20.024,11.192c-4.917,2.749-6.675,8.962-3.927,13.879c1.868,3.342,5.337,5.225,8.912,5.225c1.684,0,3.392-0.418,4.967-1.297
		l43.758-24.457c2.361-1.32,4.101-3.524,4.837-6.127c0.736-2.604,0.409-5.391-0.911-7.753L191.598,398.277z"/>
</g>
<g>
</g>
<g>
</g>
<g>
</g>
<g>
</g>
<g>
</g>
<g>
</g>
<g>
</g>
<g>
</g>
<g>
</g>
<g>
</g>
<g>
</g>
<g>
</g>
<g>
</g>
<g>
</g>
<g>
</g>
</svg>
