<?xml version="1.0" encoding="iso-8859-1"?>
<!-- Generator: Adobe Illustrator 19.0.0, SVG Export Plug-In . SVG Version: 6.00 Build 0)  -->
<svg version="1.1" id="Layer_1" xmlns="http://www.w3.org/2000/svg" xmlns:xlink="http://www.w3.org/1999/xlink" x="0px" y="0px"
	 viewBox="0 0 512 512" style="enable-background:new 0 0 512 512;" xml:space="preserve">
<rect x="176.552" y="401.655" style="fill:#C7CFE2;" width="158.897" height="92.69"/>
<path style="fill:#AFB9D2;" d="M176.552,426.581c24.659,9.523,51.431,14.798,79.448,14.798s54.79-5.276,79.448-14.798v-73.478
	H176.552V426.581z"/>
<g>
	<path style="fill:#D7DEED;" d="M353.103,512H158.897c-4.875,0-8.828-3.953-8.828-8.828v-8.828c0-9.751,7.904-17.655,17.655-17.655
		h176.552c9.751,0,17.655,7.904,17.655,17.655v8.828C361.931,508.047,357.978,512,353.103,512z"/>
	<circle style="fill:#D7DEED;" cx="256" cy="220.69" r="203.034"/>
</g>
<path style="fill:#FFE669;" d="M256,220.69L95.475,128c16.273-28.15,39.686-51.563,67.836-67.836L256,220.69z"/>
<path style="fill:#FFCD64;" d="M256,35.31V220.69L163.31,60.164C190.568,44.305,222.22,35.31,256,35.31z"/>
<path style="fill:#FFAA64;" d="M348.69,60.164L256,220.69V35.31C289.78,35.31,321.432,44.305,348.69,60.164z"/>
<path style="fill:#FF8C64;" d="M416.525,128L256,220.69l92.69-160.525C376.84,76.437,400.253,99.85,416.525,128z"/>
<path style="fill:#FF6469;" d="M441.379,220.69H256L416.525,128C432.385,155.257,441.379,186.909,441.379,220.69z"/>
<path style="fill:#E18CAF;" d="M441.379,220.69c0,33.78-8.994,65.432-24.854,92.69L256,220.69H441.379z"/>
<path style="fill:#C3B4FA;" d="M416.525,313.379c-16.273,28.15-39.686,51.563-67.836,67.836L256,220.69L416.525,313.379z"/>
<path style="fill:#7DD2F0;" d="M348.69,381.215c-27.257,15.86-58.91,24.854-92.69,24.854V220.69L348.69,381.215z"/>
<path style="fill:#7DE6C3;" d="M256,220.69v185.379c-33.78,0-65.432-8.994-92.69-24.854L256,220.69z"/>
<path style="fill:#96E393;" d="M256,220.69l-92.69,160.525c-28.15-16.273-51.563-39.686-67.836-67.836L256,220.69z"/>
<path style="fill:#AFE164;" d="M256,220.69l-160.525,92.69c-15.86-27.257-24.854-58.91-24.854-92.69H256z"/>
<path style="fill:#D7E664;" d="M256,220.69H70.621c0-33.781,8.994-65.432,24.854-92.69L256,220.69z"/>
<g style="opacity:0.5;">
	<circle style="fill:#FFFFFF;" cx="409.997" cy="261.948" r="11.123"/>
	<circle style="fill:#FFFFFF;" cx="102.003" cy="179.432" r="11.123"/>
	<circle style="fill:#FFFFFF;" cx="297.258" cy="66.692" r="11.123"/>
	<circle style="fill:#FFFFFF;" cx="214.742" cy="374.687" r="11.123"/>
	<circle style="fill:#FFFFFF;" cx="368.728" cy="333.418" r="11.123"/>
	<circle style="fill:#FFFFFF;" cx="143.272" cy="107.961" r="11.123"/>
	<circle style="fill:#FFFFFF;" cx="368.728" cy="107.961" r="11.123"/>
	<circle style="fill:#FFFFFF;" cx="143.272" cy="333.418" r="11.123"/>
	<circle style="fill:#FFFFFF;" cx="102.003" cy="261.948" r="11.123"/>
	<circle style="fill:#FFFFFF;" cx="409.997" cy="179.432" r="11.123"/>
	<circle style="fill:#FFFFFF;" cx="214.742" cy="66.692" r="11.123"/>
	<circle style="fill:#FFFFFF;" cx="297.258" cy="374.687" r="11.123"/>
</g>
<path style="fill:#FF6464;" d="M252.879,49.845L210.569,7.534C207.789,4.755,209.758,0,213.69,0h84.619
	c3.933,0,5.901,4.755,3.121,7.534l-42.31,42.31C257.397,51.569,254.603,51.569,252.879,49.845z"/>
<circle style="fill:#FFFFFF;" cx="256" cy="220.69" r="52.966"/>
<path style="fill:#FFD782;" d="M259.305,188.721l8.914,18.061l19.932,2.897c3.023,0.439,4.23,4.154,2.042,6.286l-14.423,14.059
	l3.405,19.851c0.516,3.01-2.644,5.307-5.347,3.885L256,244.388l-17.827,9.373c-2.703,1.421-5.864-0.874-5.347-3.885l3.405-19.851
	l-14.423-14.059c-2.187-2.132-0.98-5.847,2.042-6.286l19.932-2.897l8.914-18.061C254.047,185.982,257.953,185.982,259.305,188.721z"
	/>
<g>
</g>
<g>
</g>
<g>
</g>
<g>
</g>
<g>
</g>
<g>
</g>
<g>
</g>
<g>
</g>
<g>
</g>
<g>
</g>
<g>
</g>
<g>
</g>
<g>
</g>
<g>
</g>
<g>
</g>
</svg>
