<?xml version="1.0" encoding="iso-8859-1"?>
<!-- Generator: Adobe Illustrator 19.0.0, SVG Export Plug-In . SVG Version: 6.00 Build 0)  -->
<svg version="1.1" id="Capa_1" xmlns="http://www.w3.org/2000/svg" xmlns:xlink="http://www.w3.org/1999/xlink" x="0px" y="0px"
	 viewBox="0 0 511.995 511.995" style="enable-background:new 0 0 511.995 511.995;" xml:space="preserve">
<path style="fill:#303C42;" d="M508.875,429.789L306.208,227.123c-4.167-4.167-10.917-4.167-15.083,0L181.333,336.914
	l-35.125-35.125c-4.167-4.167-10.917-4.167-15.083,0l-128,128c-3.042,3.052-3.958,7.635-2.312,11.625
	c1.646,3.99,5.542,6.583,9.854,6.583h490.667c4.313,0,8.208-2.594,9.854-6.583C512.833,437.425,511.917,432.841,508.875,429.789z"/>
<path style="fill:#7CB342;" d="M36.417,426.664l102.25-102.25l56.458,56.458c4.167,4.167,10.917,4.167,15.083,0
	c4.167-4.167,4.167-10.917,0-15.083l-13.792-13.792l102.25-102.25l176.917,176.917H36.417z"/>
<path style="fill:#303C42;" d="M64,234.664h138.667c29.417,0,53.333-23.927,53.333-53.333c0-22.789-14.431-42.137-34.587-49.757
	c-8.316-38.909-42.523-67.577-82.746-67.577c-30.378,0-58.355,16.643-73.507,42.803c-0.393-0.008-0.767-0.137-1.16-0.137
	c-35.292,0-64,28.708-64,64S28.708,234.664,64,234.664z"/>
<path style="fill:#E6E6E6;" d="M64,127.998c13.542,0,26,6.219,34.146,17.062c3.521,4.708,10.188,5.646,14.938,2.125
	c4.708-3.542,5.646-10.229,2.104-14.938c-7.133-9.505-16.917-16.371-27.76-20.681c11.932-16.181,30.861-26.236,51.24-26.236
	c27.587,0,51.536,17.991,60.169,43.439c-3.988,1.544-6.836,5.358-6.836,9.895c0,5.896,4.771,10.667,10.667,10.667
	c17.646,0,32,14.354,32,32s-14.354,32-32,32H64c-23.521,0-42.667-19.135-42.667-42.667S40.479,127.998,64,127.998z"/>
<path style="opacity:0.1;enable-background:new    ;" d="M211.835,150.83c0.882,2.923,1.499,5.961,1.499,9.168
	c0,17.646-14.354,32-32,32H42.667c-6.245,0-12.137-1.424-17.488-3.846c6.702,14.809,21.543,25.18,38.822,25.18h138.667
	c17.646,0,32-14.354,32-32C234.667,166.892,224.996,154.801,211.835,150.83z"/>
<linearGradient id="SVGID_1_" gradientUnits="userSpaceOnUse" x1="-47.7992" y1="636.801" x2="-23.0009" y2="625.2372" gradientTransform="matrix(21.3333 0 0 -21.3333 996.3798 13791.6162)">
	<stop  offset="0" style="stop-color:#FFFFFF;stop-opacity:0.2"/>
	<stop  offset="1" style="stop-color:#FFFFFF;stop-opacity:0"/>
</linearGradient>
<path style="fill:url(#SVGID_1_);" d="M508.875,429.789L306.208,227.123c-4.167-4.167-10.917-4.167-15.083,0L181.333,336.914
	l-35.125-35.125c-4.167-4.167-10.917-4.167-15.083,0l-128,128c-3.042,3.052-3.958,7.635-2.312,11.625
	c1.646,3.99,5.542,6.583,9.854,6.583h490.667c4.313,0,8.208-2.594,9.854-6.583C512.833,437.425,511.917,432.841,508.875,429.789z
	 M64,234.664h138.667c29.417,0,53.333-23.927,53.333-53.333c0-22.789-14.431-42.137-34.587-49.757
	c-8.316-38.909-42.523-67.577-82.746-67.577c-30.378,0-58.355,16.643-73.507,42.803c-0.393-0.008-0.767-0.137-1.16-0.137
	c-35.292,0-64,28.708-64,64S28.708,234.664,64,234.664z"/>
<g>
</g>
<g>
</g>
<g>
</g>
<g>
</g>
<g>
</g>
<g>
</g>
<g>
</g>
<g>
</g>
<g>
</g>
<g>
</g>
<g>
</g>
<g>
</g>
<g>
</g>
<g>
</g>
<g>
</g>
</svg>
