<?xml version="1.0" encoding="iso-8859-1"?>
<!-- Generator: Adobe Illustrator 19.0.0, SVG Export Plug-In . SVG Version: 6.00 Build 0)  -->
<svg version="1.1" id="Capa_1" xmlns="http://www.w3.org/2000/svg" xmlns:xlink="http://www.w3.org/1999/xlink" x="0px" y="0px"
	 viewBox="0 0 512 512" style="enable-background:new 0 0 512 512;" xml:space="preserve">
<circle style="fill:#5C5E70;" cx="256" cy="256" r="256"/>
<polygon style="fill:#FF525D;" points="397.834,135.711 255.997,210.94 114.159,135.711 114.159,0.001 397.834,0.001 "/>
<path style="fill:#FFD15C;" d="M418.419,373.363c0,41.587-15.632,79.517-41.326,108.241C341.044,500.997,299.813,512,256,512
	c-43.823,0-85.055-11.003-121.114-30.407c-25.694-28.724-41.315-66.654-41.315-108.231c0-89.704,72.725-162.419,162.429-162.419
	S418.419,283.658,418.419,373.363z"/>
<circle style="fill:#FFDC8D;" cx="256" cy="373.363" r="124.75"/>
<polygon style="fill:#F4A14E;" points="255.997,276.8 284.376,334.303 347.834,343.524 301.916,388.283 312.756,451.485 
	255.997,421.646 199.238,451.485 210.078,388.283 164.159,343.524 227.617,334.303 "/>
<g>
</g>
<g>
</g>
<g>
</g>
<g>
</g>
<g>
</g>
<g>
</g>
<g>
</g>
<g>
</g>
<g>
</g>
<g>
</g>
<g>
</g>
<g>
</g>
<g>
</g>
<g>
</g>
<g>
</g>
</svg>
