<?xml version="1.0" encoding="iso-8859-1"?>
<!-- Generator: Adobe Illustrator 19.0.0, SVG Export Plug-In . SVG Version: 6.00 Build 0)  -->
<svg version="1.1" id="Layer_1" xmlns="http://www.w3.org/2000/svg" xmlns:xlink="http://www.w3.org/1999/xlink" x="0px" y="0px"
	 viewBox="0 0 501.999 501.999" style="enable-background:new 0 0 501.999 501.999;" xml:space="preserve">
<g>
	<rect x="103.603" y="170.176" style="fill:#603813;" width="153.177" height="46.963"/>
	<g>
		<path style="fill:#333333;" d="M141.935,339.552H28.864c-0.924,4.249-1.425,8.655-1.425,13.181
			c0,34.101,27.644,61.746,61.745,61.746s61.745-27.645,61.745-61.746c0-3.125-0.237-6.194-0.685-9.194
			C148.28,341.113,145.282,339.552,141.935,339.552z"/>
		<path style="fill:#333333;" d="M397.532,337.943l-0.394,0.566c-9.496,13.636-24.451,22.298-40.803,23.921
			c4.653,29.494,30.18,52.049,60.982,52.049c34.101,0,61.745-27.645,61.745-61.746c0-1.818-0.095-3.612-0.249-5.39
			c-17.812-6.652-38.638-10.487-60.909-10.487C410.958,336.855,404.152,337.229,397.532,337.943z"/>
		<path style="fill:#FBB03B;" d="M418.879,274.547c-0.345-3.671-0.924-7.336-1.791-10.968L375.566,87.521h-39.988l21.549,123.539
			c2.733,17.307,0.814,35.03-5.559,51.352c-14.767,37.82-51.165,62.759-91.766,62.874l-7.727,0.022
			c-22.393-2.826-39.715-12.517-39.715-35.677c0-24.759,19.794-44.88,44.419-45.438v-27.054H102.905
			C51.807,217.139,10,258.946,10,310.043v29.509h18.864h113.072c3.347,0,6.344,1.561,8.31,3.987c1.489,1.839,2.388,4.174,2.388,6.71
			v12.48h99.442h4.704h64.686h28.226h1.063c1.876,0,3.735-0.117,5.582-0.3c16.352-1.622,31.306-10.285,40.803-23.921l0.394-0.566
			c6.62-0.714,13.426-1.088,20.373-1.088c22.271,0,43.097,3.835,60.909,10.487c4.552,1.7,8.918,3.575,13.048,5.628
			c0.083-1.442,0.137-2.891,0.137-4.354C492,308.022,459.349,275.07,418.879,274.547z"/>
	</g>
	<path style="fill:#FBB03B;" d="M417.905,153.383c-18.187,0-32.931-14.744-32.931-32.931s14.744-32.931,32.931-32.931V153.383z"/>
	<g>
		<path d="M427.638,265.103c-0.246-1.276-0.513-2.55-0.816-3.82l-23.709-100.528c4.614,1.699,9.597,2.628,14.793,2.628
			c5.522,0,10-4.477,10-10V87.521c0-5.523-4.478-10-10-10c-12.3,0-23.4,5.207-31.234,13.524l-1.372-5.819
			c-1.065-4.515-5.095-7.705-9.733-7.705H335.58c-2.953,0-5.755,1.305-7.654,3.565c-1.9,2.26-2.704,5.245-2.197,8.153l2.88,16.508
			h-36.544c-5.522,0-10,4.477-10,10s4.478,10,10,10h40.032l15.166,86.945c2.437,15.518,0.705,31.451-5.008,46.082
			c-13.363,34.225-45.738,56.407-82.479,56.511l-7.068,0.02c-30.348-4.041-30.346-19.74-30.346-25.675
			c0-19.109,15.542-35.008,34.646-35.44c5.433-0.123,9.773-4.563,9.773-9.998v-27.054v-46.963c0-5.523-4.478-10-10-10H103.603
			c-5.523,0-10,4.477-10,10v37.388C41.204,212.281,0,256.438,0,310.043v29.509c0,5.523,4.477,10,10,10h7.52
			c-0.046,1.055-0.081,2.114-0.081,3.181c0,39.561,32.185,71.746,71.746,71.746c32.621,0,60.207-21.891,68.888-51.749h190.356
			c8.682,29.857,36.268,51.749,68.888,51.749c36.299,0,66.368-27.104,71.082-62.132c9.662,3.569,13.6-6.057,13.6-13.729
			C502,305.54,469.437,269.945,427.638,265.103z M407.905,99.819v41.267c-7.648-3.721-12.931-11.572-12.931-20.633
			C394.975,111.391,400.257,103.54,407.905,99.819z M426.969,301.904c17.145,3.249,31.327,14.972,37.991,30.643
			c-14.805-3.749-30.668-5.692-47.056-5.692c-0.273,0-0.543,0.007-0.816,0.008C421.657,319.04,424.966,310.616,426.969,301.904z
			 M113.603,180.176H246.78v26.963H113.603V180.176z M89.185,404.479c-28.533,0-51.746-23.213-51.746-51.746
			c0-1.069,0.043-2.128,0.107-3.181h103.276c0.064,1.053,0.107,2.112,0.107,3.181C140.93,381.266,117.717,404.479,89.185,404.479z
			 M350.754,352.73H162.633v-2.48c0-3.844-1.073-7.435-2.906-10.523c-3.61-6.079-10.223-10.175-17.791-10.175H20v-19.509
			c0-45.714,37.191-82.905,82.905-82.905h0.698H246.78v8.139c-10.807,2.175-20.721,7.529-28.588,15.562
			c-10.209,10.423-15.832,24.199-15.832,38.792c0,14.745,6.296,40.276,48.463,45.599c0.425,0.053,0.857,0.072,1.281,0.079
			l7.728-0.022c21.937-0.063,43.098-6.649,61.194-19.048c18.096-12.399,31.879-29.754,39.858-50.188
			c7.01-17.954,9.127-37.508,6.121-56.548c-0.009-0.053-0.018-0.106-0.026-0.159l-19.505-111.82h20.176l39.553,167.705
			C414.931,299.046,391.234,352.73,350.754,352.73z M417.317,404.479c-22.375,0-41.475-14.278-48.677-34.2
			c13.431-3.753,25.481-11.674,34.275-22.784c4.951-0.417,9.958-0.638,14.99-0.638c17.867,0,35.434,2.688,51.111,7.692
			C468.055,382.242,445.241,404.479,417.317,404.479z"/>
		<path d="M99.181,241c-5.642,0-11.247,0.723-16.659,2.147c-5.341,1.406-8.531,6.875-7.125,12.216
			c1.181,4.488,5.231,7.457,9.664,7.457c0.843,0,1.7-0.107,2.553-0.332c3.751-0.987,7.644-1.488,11.567-1.488
			c5.523,0,10-4.477,10-10S104.704,241,99.181,241z"/>
		<path d="M64.231,262.303c-4.149-3.644-10.467-3.234-14.113,0.916c-10.456,11.906-16.214,27.198-16.214,43.058
			c0,5.523,4.477,10,10,10s10-4.477,10-10c0-11.001,3.993-21.606,11.242-29.861C68.791,272.266,68.381,265.948,64.231,262.303z"/>
	</g>
</g>
<g>
</g>
<g>
</g>
<g>
</g>
<g>
</g>
<g>
</g>
<g>
</g>
<g>
</g>
<g>
</g>
<g>
</g>
<g>
</g>
<g>
</g>
<g>
</g>
<g>
</g>
<g>
</g>
<g>
</g>
</svg>
