<?xml version="1.0" encoding="iso-8859-1"?>
<!-- Generator: Adobe Illustrator 19.0.0, SVG Export Plug-In . SVG Version: 6.00 Build 0)  -->
<svg version="1.1" id="Capa_1" xmlns="http://www.w3.org/2000/svg" xmlns:xlink="http://www.w3.org/1999/xlink" x="0px" y="0px"
	 viewBox="0 0 509.287 509.287" style="enable-background:new 0 0 509.287 509.287;" xml:space="preserve">
<circle style="fill:#29B36F;" cx="254.644" cy="254.644" r="254.644"/>
<path style="fill:#F0582F;" d="M235.656,13.902H52.895c-10.511,0-18.988,8.477-18.988,18.988v285.838
	c0,10.511,8.477,18.988,18.988,18.988h182.76c10.511,0,18.988-8.477,18.988-18.988V32.89
	C254.644,22.379,246.167,13.902,235.656,13.902z"/>
<path style="fill:#D54232;" d="M456.392,13.902h-182.76c-10.511,0-18.988,8.477-18.988,18.988v285.838
	c0,10.511,8.477,18.988,18.988,18.988h182.76c10.511,0,18.988-8.477,18.988-18.988V32.89
	C475.38,22.379,466.903,13.902,456.392,13.902z"/>
<rect x="53.574" y="34.924" style="fill:#FFFFFC;" width="201.07" height="282.109"/>
<rect x="254.644" y="34.924" style="fill:#F1F3F7;" width="201.07" height="282.109"/>
<g>
	<rect x="89.515" y="92.228" style="fill:#DEDEDF;" width="129.187" height="13.224"/>
	<rect x="89.515" y="143.767" style="fill:#DEDEDF;" width="129.187" height="13.224"/>
	<rect x="89.515" y="194.967" style="fill:#DEDEDF;" width="129.187" height="13.224"/>
	<rect x="89.515" y="246.506" style="fill:#DEDEDF;" width="129.187" height="13.224"/>
	<rect x="290.585" y="92.228" style="fill:#DEDEDF;" width="129.187" height="13.224"/>
	<rect x="290.585" y="143.767" style="fill:#DEDEDF;" width="129.187" height="13.224"/>
	<rect x="290.585" y="194.967" style="fill:#DEDEDF;" width="129.187" height="13.224"/>
	<rect x="290.585" y="246.506" style="fill:#DEDEDF;" width="129.187" height="13.224"/>
</g>
<g>
	<path style="fill:#646B79;" d="M317.711,277.701c-20.005,0-38.654-12.546-45.097-32.551c-4.069-11.868-3.052-24.752,2.713-36.281
		c5.764-11.189,15.597-19.666,27.465-23.735c24.752-8.138,51.539,5.425,59.677,30.177l0,0c4.069,11.868,3.052,24.752-2.713,36.281
		c-5.764,11.189-15.597,19.666-27.465,23.735C327.544,277.022,322.458,277.701,317.711,277.701z M317.711,185.473
		c-4.747,0-9.155,0.678-13.902,2.374c-11.528,3.73-20.683,11.528-26.109,22.379c-5.425,10.85-6.442,22.718-2.713,34.246
		c7.799,23.396,33.229,36.281,56.625,28.821c11.529-3.73,20.683-11.529,26.109-22.379c5.425-10.85,6.442-22.718,2.713-34.246
		C353.992,197.679,336.36,185.473,317.711,185.473z"/>
	<path style="fill:#646B79;" d="M317.711,256.678c-11.189,0-21.362-7.121-25.091-17.971c-4.408-13.902,3.052-28.821,16.954-33.229
		c6.781-2.034,13.902-1.695,20.005,1.695c6.103,3.052,10.85,8.477,13.224,15.258l0,0c4.408,13.902-3.052,28.821-16.954,33.229
		C323.136,256.339,320.424,256.678,317.711,256.678z M317.711,206.495c-2.374,0-5.086,0.339-7.46,1.356
		c-12.546,4.069-19.327,17.632-15.258,29.838c4.069,12.546,17.632,19.327,29.838,15.258c12.546-4.069,19.327-17.632,15.258-29.838
		c-2.034-6.103-6.103-10.85-11.868-13.902C325.171,207.513,321.441,206.495,317.711,206.495z"/>
	
		<rect x="316.634" y="212.963" transform="matrix(-0.3113 -0.9503 0.9503 -0.3113 197.9447 603.9637)" style="fill:#646B79;" width="2.373" height="34.585"/>
	
		<rect x="312.741" y="207.218" transform="matrix(-0.3112 -0.9503 0.9503 -0.3112 203.2588 585.8275)" style="fill:#646B79;" width="2.373" height="24.073"/>
</g>
<path style="fill:#F8B517;" d="M180.387,369.589L180.387,369.589L180.387,369.589c-4.747-0.339-9.155,0.339-13.902,1.695
	c-21.362,6.781-33.568,29.499-26.787,50.861c6.781,21.362,29.499,33.568,50.861,26.787c5.764-1.695,10.511-4.747,14.58-8.138
	c56.625-45.436,79.343-27.126,79.343-27.126L274.31,380.44l-10.172-33.229c0,0-8.477,28.143-81.038,22.718
	C182.421,369.589,181.404,369.589,180.387,369.589z"/>
<path style="fill:#8E342D;" d="M263.46,344.498l22.04,71.544c2.713,8.816,11.868,13.563,20.683,10.85L274.31,323.815
	C265.494,326.527,260.747,336.021,263.46,344.498z"/>
<polygon style="fill:#FBD303;" points="314.321,282.787 362.469,438.421 316.355,460.122 264.138,290.924 "/>
<g>
</g>
<g>
</g>
<g>
</g>
<g>
</g>
<g>
</g>
<g>
</g>
<g>
</g>
<g>
</g>
<g>
</g>
<g>
</g>
<g>
</g>
<g>
</g>
<g>
</g>
<g>
</g>
<g>
</g>
</svg>
