<?xml version="1.0" encoding="iso-8859-1"?>
<!-- Generator: Adobe Illustrator 19.0.0, SVG Export Plug-In . SVG Version: 6.00 Build 0)  -->
<svg version="1.1" id="Layer_1" xmlns="http://www.w3.org/2000/svg" xmlns:xlink="http://www.w3.org/1999/xlink" x="0px" y="0px"
	 viewBox="0 0 512.002 512.002" style="enable-background:new 0 0 512.002 512.002;" xml:space="preserve">
<path style="fill:#E6E6E6;" d="M153.881,408.561L103.44,358.12l-18.267,18.267c-19.412,19.412-34.506,42.705-44.294,68.354
	l-13.972,36.611l3.742,3.742l36.611-13.971c25.649-9.788,48.942-24.882,68.354-44.294L153.881,408.561z"/>
<rect x="247.926" y="9.309" transform="matrix(-0.7071 -0.7071 0.7071 -0.7071 322.6165 590.4454)" style="fill:#BDD169;" width="71.335" height="438.194"/>
<rect x="443.275" y="14.045" transform="matrix(-0.7071 -0.7071 0.7071 -0.7071 756.0732 410.9048)" style="fill:#E6E6E6;" width="39.727" height="69.639"/>
<path style="fill:#4C1D1D;" d="M77.96,369.175c-20.562,20.562-36.244,44.762-46.61,71.929l-13.971,36.611
	c-0.389,1.019-0.591,2.073-0.644,3.126L2.987,494.59c-3.983,3.983-3.983,10.441,0,14.425c1.992,1.991,4.602,2.986,7.212,2.986
	s5.221-0.995,7.212-2.987l13.743-13.743c1.055-0.052,2.111-0.259,3.131-0.648l36.611-13.971
	c27.167-10.367,51.367-26.05,71.93-46.611l287.327-287.327c1.899,8.382-3.19,22.793-15.458,35.061l-86.471,86.471
	c-3.983,3.983-3.983,10.441,0,14.425c1.992,1.992,4.602,2.987,7.212,2.987c2.61,0,5.221-0.995,7.212-2.987l86.471-86.471
	c10.294-10.295,17.555-22.601,20.444-34.653c2.769-11.554,1.226-22.215-4.176-30.067l25.56-25.56c3.984-3.983,3.984-10.441,0-14.425
	l-3.962-3.962l42.029-42.029c3.983-3.983,3.983-10.441,0-14.425l-28.092-28.09c-3.983-3.983-10.441-3.983-14.425,0l-42.029,42.029
	l-3.962-3.962c-3.983-3.983-10.441-3.983-14.425,0L77.96,369.175z M128.403,419.616c-18.518,18.518-40.312,32.641-64.779,41.977
	l-21.372,8.156l8.156-21.372c9.336-24.466,23.459-46.261,41.977-64.778l11.056-11.055l36.017,36.017L128.403,419.616z
	 M449.311,98.707l-295.43,295.43l-36.017-36.017l295.43-295.43L449.311,98.707z M452.56,73.108l-13.667-13.667l34.817-34.817
	l13.667,13.667L452.56,73.108z"/>
<g>
</g>
<g>
</g>
<g>
</g>
<g>
</g>
<g>
</g>
<g>
</g>
<g>
</g>
<g>
</g>
<g>
</g>
<g>
</g>
<g>
</g>
<g>
</g>
<g>
</g>
<g>
</g>
<g>
</g>
</svg>
