<?xml version="1.0" encoding="iso-8859-1"?>
<!-- Generator: Adobe Illustrator 19.0.0, SVG Export Plug-In . SVG Version: 6.00 Build 0)  -->
<svg version="1.1" id="Layer_1" xmlns="http://www.w3.org/2000/svg" xmlns:xlink="http://www.w3.org/1999/xlink" x="0px" y="0px"
	 viewBox="0 0 512 512" style="enable-background:new 0 0 512 512;" xml:space="preserve">
<path style="fill:#BDD169;" d="M501.801,254.846c0-10.487-3.11-20.246-8.457-28.408c-7.138-10.895-9.683-24.143-7.479-36.979
	c1.601-9.325,0.674-19.199-3.216-28.588c-4.012-9.688-10.619-17.513-18.682-23.007c-10.894-7.424-18.143-18.917-21.167-31.749
	c-2.137-9.065-6.738-17.666-13.808-24.737c-7.298-7.298-16.226-11.967-25.612-14.011c-12.884-2.805-24.28-10.187-31.891-20.954
	c-5.462-7.728-13.101-14.055-22.491-17.944c-9.689-4.013-19.896-4.874-29.482-3.058c-12.797,2.425-26.01-0.293-37.026-7.241
	c-8.003-5.048-17.48-7.97-27.643-7.97c-10.487,0-20.246,3.11-28.409,8.457c-10.895,7.138-24.143,9.683-36.979,7.479
	c-9.325-1.601-19.199-0.674-28.588,3.215c-9.688,4.012-17.513,10.619-23.007,18.682c-7.424,10.895-18.917,18.143-31.749,21.167
	c-9.065,2.137-17.666,6.738-24.737,13.808c-7.298,7.298-11.967,16.226-14.011,25.612c-2.805,12.884-10.187,24.28-20.954,31.891
	c-7.728,5.462-14.055,13.101-17.944,22.491c-4.013,9.689-4.874,19.896-3.058,29.482c2.425,12.797-0.293,26.01-7.241,37.026
	c-5.047,8.004-7.969,17.481-7.969,27.644c0,10.487,3.11,20.246,8.457,28.409c7.137,10.895,9.683,24.143,7.479,36.979
	c-1.601,9.325-0.674,19.199,3.216,28.588c4.012,9.688,10.619,17.513,18.682,23.007c10.895,7.424,18.143,18.917,21.167,31.749
	c2.137,9.065,6.738,17.666,13.808,24.737c7.298,7.298,16.226,11.967,25.612,14.011c12.884,2.805,24.28,10.187,31.891,20.954
	c5.462,7.728,13.101,14.055,22.491,17.944c9.689,4.013,19.896,4.874,29.482,3.058c12.797-2.425,26.01,0.293,37.026,7.241
	c8.003,5.048,17.48,7.97,27.643,7.97c10.487,0,20.246-3.11,28.409-8.457c10.895-7.138,24.143-9.683,36.979-7.479
	c9.325,1.601,19.199,0.674,28.588-3.216c9.688-4.012,17.513-10.619,23.007-18.682c7.424-10.894,18.918-18.143,31.749-21.167
	c9.065-2.137,17.666-6.738,24.737-13.808c7.298-7.298,11.967-16.226,14.011-25.612c2.805-12.884,10.187-24.28,20.954-31.891
	c7.728-5.462,14.055-13.101,17.944-22.491c4.013-9.689,4.874-19.896,3.058-29.482c-2.425-12.797,0.293-26.01,7.241-37.026
	C498.879,274.486,501.801,265.009,501.801,254.846z"/>
<g>
	<path style="fill:#4C1D1D;" d="M257.155,512c-11.747,0-23.187-3.299-33.084-9.542c-9.019-5.689-19.564-7.767-29.685-5.847
		c-11.878,2.251-24.078,0.987-35.286-3.655c-10.855-4.496-20.163-11.924-26.916-21.481c-6.073-8.591-15.211-14.584-25.733-16.875
		c-11.616-2.528-22.215-8.326-30.654-16.764c-8.171-8.171-13.884-18.409-16.524-29.609c-2.55-10.822-8.582-19.935-16.983-25.66
		c-9.987-6.806-17.719-16.327-22.361-27.533c-4.496-10.852-5.826-22.684-3.846-34.217c1.805-10.511-0.312-21.046-5.958-29.664
		C3.501,281.04,0,269.283,0,257.154c0-11.748,3.299-23.189,9.542-33.084c5.689-9.019,7.765-19.562,5.846-29.686
		c-2.25-11.876-0.986-24.076,3.655-35.284c4.496-10.854,11.923-20.161,21.481-26.917c8.593-6.074,14.586-15.212,16.876-25.732
		c2.529-11.618,8.327-22.218,16.764-30.655c8.172-8.171,18.411-13.884,29.609-16.523c10.821-2.551,19.935-8.583,25.66-16.984
		c6.806-9.987,16.326-17.719,27.532-22.362c10.854-4.495,22.687-5.824,34.218-3.845c10.509,1.805,21.045-0.311,29.663-5.958
		C230.959,3.501,242.716,0,254.845,0c11.747,0,23.187,3.299,33.084,9.542c9.02,5.689,19.564,7.765,29.686,5.847
		c11.878-2.251,24.076-0.986,35.285,3.655c10.855,4.496,20.163,11.924,26.916,21.481c6.073,8.591,15.211,14.584,25.733,16.875
		c11.616,2.528,22.215,8.326,30.654,16.764c8.171,8.171,13.884,18.409,16.524,29.609c2.55,10.822,8.582,19.935,16.983,25.66
		c9.987,6.806,17.719,16.327,22.361,27.533c4.496,10.852,5.826,22.684,3.846,34.217c-1.805,10.511,0.312,21.046,5.958,29.664
		C508.499,230.961,512,242.717,512,254.846c0,11.748-3.299,23.189-9.542,33.084c-5.689,9.019-7.765,19.562-5.846,29.686
		c2.25,11.876,0.986,24.076-3.655,35.284c-4.496,10.854-11.923,20.161-21.481,26.917c-8.593,6.074-14.586,15.212-16.876,25.732
		c-2.529,11.618-8.327,22.218-16.764,30.655c-8.172,8.171-18.411,13.884-29.609,16.523c-10.821,2.551-19.935,8.583-25.66,16.984
		c-6.806,9.987-16.326,17.719-27.532,22.362c-10.854,4.496-22.685,5.824-34.218,3.845c-10.511-1.806-21.045,0.311-29.663,5.958
		C281.041,508.499,269.284,512,257.155,512z M201.827,475.513c11.554,0,23.01,3.312,33.126,9.691
		c6.635,4.185,14.313,6.397,22.203,6.397c8.148,0,16.039-2.348,22.819-6.79c12.95-8.485,28.68-11.68,44.295-9
		c7.733,1.329,15.67,0.433,22.96-2.586c7.527-3.118,13.918-8.306,18.481-15.003c8.604-12.625,22.04-21.628,37.838-25.351
		c7.508-1.769,14.377-5.604,19.865-11.093c5.669-5.668,9.56-12.78,11.256-20.57c3.378-15.513,12.268-29.026,25.033-38.05
		c6.407-4.528,11.389-10.775,14.408-18.065c3.119-7.528,3.97-15.717,2.46-23.681c-2.882-15.211,0.185-30.967,8.636-44.367
		c4.186-6.635,6.397-14.312,6.397-22.203c0-8.148-2.348-16.039-6.79-22.82c-8.484-12.949-11.68-28.68-8.999-44.294
		c1.327-7.731,0.432-15.67-2.587-22.958c-3.119-7.528-8.307-13.919-15.004-18.483c-12.625-8.604-21.627-22.042-25.349-37.838
		c-1.769-7.507-5.605-14.377-11.094-19.864c-5.668-5.669-12.781-9.561-20.569-11.257c-15.516-3.378-29.029-12.269-38.051-25.033
		c-4.527-6.407-10.773-11.388-18.064-14.408c-7.528-3.118-15.716-3.97-23.68-2.46c-15.211,2.881-30.968-0.185-44.368-8.636
		c-6.637-4.184-14.315-6.396-22.205-6.396c-8.148,0-16.039,2.348-22.819,6.79c-12.95,8.485-28.682,11.68-44.295,9
		c-7.732-1.328-15.669-0.432-22.96,2.585c-7.527,3.118-13.918,8.306-18.481,15.003c-8.604,12.625-22.04,21.628-37.838,25.351
		c-7.508,1.769-14.377,5.604-19.865,11.093c-5.669,5.668-9.56,12.78-11.256,20.57c-3.378,15.513-12.268,29.026-25.033,38.05
		c-6.407,4.528-11.389,10.775-14.408,18.065c-3.119,7.528-3.97,15.717-2.46,23.681c2.882,15.211-0.185,30.967-8.636,44.367
		c-4.184,6.635-6.396,14.312-6.396,22.202c0,8.148,2.348,16.039,6.79,22.82c8.484,12.949,11.68,28.68,8.999,44.294
		c-1.327,7.731-0.432,15.67,2.587,22.958c3.119,7.528,8.307,13.919,15.004,18.483c12.625,8.604,21.627,22.042,25.349,37.838
		c1.769,7.507,5.605,14.377,11.094,19.864c5.668,5.669,12.781,9.561,20.569,11.257c15.516,3.378,29.029,12.269,38.051,25.033
		c4.527,6.407,10.773,11.388,18.064,14.408c7.528,3.118,15.714,3.969,23.683,2.46C194.314,475.862,198.077,475.513,201.827,475.513z
		"/>
	<path style="fill:#4C1D1D;" d="M143.962,226.012v-47.383c0-27.167,17.689-37.275,40.75-37.275c22.744,0,40.75,10.108,40.75,37.275
		v47.383c0,27.167-18.006,37.275-40.75,37.275C161.651,263.288,143.962,253.179,143.962,226.012z M206.509,178.629
		c0-13.898-8.214-20.533-21.797-20.533c-13.583,0-21.797,6.634-21.797,20.533v47.383c0,13.899,8.213,20.533,21.797,20.533
		c13.582,0,21.797-6.634,21.797-20.533V178.629z M323.388,139.458c0,1.579-0.316,2.844-0.948,4.422L204.297,376.693
		c-1.579,3.475-5.054,5.055-8.845,5.055c-5.686,0-10.108-4.422-10.108-9.477c0-1.264,0.316-2.844,0.949-4.106l118.46-234.392
		c1.58-3.159,4.739-4.739,7.897-4.739C317.703,129.033,323.388,133.457,323.388,139.458z M281.376,335.943V288.56
		c0-27.167,17.689-37.275,40.75-37.275c22.744,0,40.75,10.108,40.75,37.275v47.383c0,27.167-18.006,37.275-40.75,37.275
		C299.065,373.218,281.376,363.11,281.376,335.943z M343.922,288.559c0-13.899-8.214-20.533-21.797-20.533
		c-13.583,0-21.797,6.634-21.797,20.533v47.383c0,13.899,8.213,20.533,21.797,20.533c13.582,0,21.797-6.634,21.797-20.533V288.559z"
		/>
</g>
<g>
</g>
<g>
</g>
<g>
</g>
<g>
</g>
<g>
</g>
<g>
</g>
<g>
</g>
<g>
</g>
<g>
</g>
<g>
</g>
<g>
</g>
<g>
</g>
<g>
</g>
<g>
</g>
<g>
</g>
</svg>
