<?xml version="1.0" encoding="iso-8859-1"?>
<!-- Generator: Adobe Illustrator 19.0.0, SVG Export Plug-In . SVG Version: 6.00 Build 0)  -->
<svg version="1.1" id="Capa_1" xmlns="http://www.w3.org/2000/svg" xmlns:xlink="http://www.w3.org/1999/xlink" x="0px" y="0px"
	 viewBox="0 0 512 512" style="enable-background:new 0 0 512 512;" xml:space="preserve">
<circle style="fill:#E8DBC4;" cx="256" cy="256" r="256"/>
<path style="fill:#F4A14E;" d="M474.847,90.341V388.9c-44.92,73.812-126.13,123.099-218.843,123.099S82.08,462.711,37.16,388.9
	V90.341H474.847z"/>
<path style="fill:#E28D40;" d="M474.844,140.753H87.563c-27.839,0-50.408-22.569-50.408-50.408l0,0
	c0-27.839,22.569-50.408,50.408-50.408h359.888c15.128,0,27.392,12.264,27.392,27.392v73.424H474.844z"/>
<path style="fill:#5C5E70;" d="M87.563,116.719c-14.543,0-26.375-11.831-26.375-26.375S73.02,63.969,87.563,63.969h387.281v52.75
	H87.563V116.719z"/>
<path style="fill:#E28D40;" d="M474.844,240.027h-78.783c-38.518,0-69.744,31.225-69.744,69.744l0,0
	c0,38.518,31.225,69.744,69.744,69.744h78.783V240.027z"/>
<circle style="fill:#FFD15C;" cx="400.583" cy="309.77" r="29.959"/>
<path style="fill:#4BC999;" d="M91.142,116.719c0,0,0-9.237,0-23.78s0-52.75,0-52.75h252.531v76.53H91.142V116.719z"/>
<path style="fill:#41B787;" d="M91.142,43.86L91.142,43.86c0-16.593,13.451-30.044,30.044-30.044h222.487v60.089H121.186
	C104.593,73.904,91.142,60.453,91.142,43.86z"/>
<rect x="166.734" y="73.906" style="fill:#4BC999;" width="203.41" height="42.816"/>
<g>
</g>
<g>
</g>
<g>
</g>
<g>
</g>
<g>
</g>
<g>
</g>
<g>
</g>
<g>
</g>
<g>
</g>
<g>
</g>
<g>
</g>
<g>
</g>
<g>
</g>
<g>
</g>
<g>
</g>
</svg>
