<?xml version="1.0" encoding="iso-8859-1"?>
<!-- Generator: Adobe Illustrator 19.0.0, SVG Export Plug-In . SVG Version: 6.00 Build 0)  -->
<svg version="1.1" id="Layer_1" xmlns="http://www.w3.org/2000/svg" xmlns:xlink="http://www.w3.org/1999/xlink" x="0px" y="0px"
	 viewBox="0 0 507.99 507.99" style="enable-background:new 0 0 507.99 507.99;" xml:space="preserve">
<path style="fill:#FFD15C;" d="M473.59,332.937l-34.6-169c-2.3-11.5-13.5-18.8-25-16.5l-191.9,39.1c-11.5,2.3-18.9,13.5-16.5,25
	l34.5,169.1c2.3,11.5,13.5,18.8,25,16.5l191.9-39.2C468.49,355.537,475.89,344.437,473.59,332.937z"/>
<polygon style="fill:#FF7058;" points="344.49,161.537 355.29,214.337 348.29,224.937 337.69,217.937 330.69,228.537 
	320.09,221.537 312.99,232.037 302.39,225.037 291.69,172.337 "/>
<g>
	<polygon style="fill:#FFFFFF;" points="373.09,331.137 387.39,309.437 409.19,323.737 398.69,325.937 403.79,351.237 
		388.69,354.237 383.59,328.937 	"/>
	<polygon style="fill:#FFFFFF;" points="416.19,322.337 430.59,300.637 452.29,314.937 441.79,317.137 446.99,342.437 
		431.89,345.437 426.69,320.237 	"/>
</g>
<path style="fill:#40596B;" d="M507.59,365.737c-2.1-9.9-11.8-16.3-21.7-14.2l-203.1,42c-4.4-7.7-10.7-14.6-18.6-19.8
	c-7.9-5.2-16.7-8.2-25.6-9.2l-67.1-323.2c-1-4.8-3.9-9-8-11.7s-9.1-3.6-13.9-2.6l-73.5,15.9c-10,2.2-16.3,11.9-14.1,21.8
	c2.1,9.9,12,16.2,21.8,14.1l55.5-11.9l63.3,305c-7.7,4.4-14.6,10.6-19.8,18.6c-17.8,27-10.2,63.5,16.9,81.2
	c9.6,6.3,20.3,9.4,30.9,9.6c19.6,0.4,38.9-8.9,50.5-26.4c5.2-7.9,8.2-16.7,9.2-25.5l203.1-42
	C503.29,385.337,509.69,375.637,507.59,365.737z M250.29,434.737c-3.2,4.9-8.2,8.3-13.9,9.5c-5.8,1.2-11.6,0.1-16.6-3.2
	c-4.9-3.2-8.3-8.2-9.5-13.9c-1.2-5.7-0.1-11.6,3.2-16.5c3.2-4.9,8.2-8.3,13.9-9.5c1.7-0.3,3.3-0.5,5-0.5c4.1,0.1,8.1,1.3,11.6,3.6
	c4.9,3.2,8.3,8.2,9.5,13.9C254.59,424.037,253.49,429.837,250.29,434.737z"/>
<path style="fill:#4CDBC4;" d="M80.39,36.737l-62.1,12.9c-12.4,2.6-20.4,14.7-17.8,27.1s14.7,20.3,27.1,17.8l62.1-12.9L80.39,36.737
	z"/>
<g>
</g>
<g>
</g>
<g>
</g>
<g>
</g>
<g>
</g>
<g>
</g>
<g>
</g>
<g>
</g>
<g>
</g>
<g>
</g>
<g>
</g>
<g>
</g>
<g>
</g>
<g>
</g>
<g>
</g>
</svg>
