<?xml version="1.0" encoding="iso-8859-1"?>
<!-- Generator: Adobe Illustrator 19.0.0, SVG Export Plug-In . SVG Version: 6.00 Build 0)  -->
<svg version="1.1" id="Capa_1" xmlns="http://www.w3.org/2000/svg" xmlns:xlink="http://www.w3.org/1999/xlink" x="0px" y="0px"
	 viewBox="0 0 511.999 511.999" style="enable-background:new 0 0 511.999 511.999;" xml:space="preserve">
<path style="fill:#5D5360;" d="M478.968,57.805H33.032C14.789,57.805,0,72.594,0,90.838v297.29
	c0,18.243,14.789,33.032,33.032,33.032h140.387l-8.258,49.548h181.677l-8.258-49.548h140.387c18.243,0,33.032-14.789,33.032-33.032
	V90.838C512,72.594,497.211,57.805,478.968,57.805z"/>
<path style="fill:#BEEBFF;" d="M264.258,388.128H41.29c-4.561,0-8.258-3.697-8.258-8.258V99.096c0-4.561,3.697-8.258,8.258-8.258
	h222.968V388.128z"/>
<path style="fill:#E6AF78;" d="M209.273,315.216l-26.724-13.361c-5.595-2.798-9.13-8.517-9.13-14.773v-31.083h-49.548v31.083
	c0,6.256-3.534,11.975-9.13,14.773l-26.724,13.361c-8.393,4.197-13.695,12.775-13.695,22.159v50.754h148.645v-50.754
	C222.968,327.991,217.666,319.412,209.273,315.216z"/>
<path style="fill:#00AAF0;" d="M209.273,315.216l-26.724-13.361c-3.019-1.51-5.364-3.907-6.952-6.743l-15.273,15.273
	c-6.45,6.45-16.907,6.45-23.357,0l-15.273-15.273c-1.588,2.836-3.933,5.233-6.952,6.743l-26.724,13.361
	c-8.393,4.196-13.695,12.774-13.695,22.158v50.754h148.645v-50.754C222.968,327.991,217.666,319.412,209.273,315.216z"/>
<path style="fill:#D29B6E;" d="M123.871,284.167c7.659,3.112,16.011,4.864,24.774,4.864s17.115-1.752,24.774-4.864v-28.168h-49.548
	V284.167z"/>
<circle style="fill:#6E4B53;" cx="148.65" cy="148.649" r="24.774"/>
<path style="fill:#F0C087;" d="M148.645,272.515L148.645,272.515c-27.365,0-49.548-22.184-49.548-49.548v-16.516
	c0-27.365,22.184-49.548,49.548-49.548l0,0c27.365,0,49.548,22.184,49.548,49.548v16.516
	C198.193,250.332,176.01,272.515,148.645,272.515z"/>
<path style="fill:#E6AF78;" d="M132.129,239.483v-49.548c0-12.61,4.75-24.084,12.507-32.83
	c-25.485,2.046-45.539,23.334-45.539,49.346v16.516c0,26.012,20.054,47.299,45.539,49.346
	C136.879,263.567,132.129,252.093,132.129,239.483z"/>
<path style="fill:#5C414B;" d="M148.645,156.902c-27.365,0-49.548,22.183-49.548,49.548v8.258c0,0,16.516,0,33.032-16.516
	c0,0,24.774,33.032,66.065,16.516v-8.258C198.194,179.086,176.01,156.902,148.645,156.902z"/>
<path style="fill:#503441;" d="M132.129,189.934c0-12.61,4.75-24.084,12.507-32.83c-25.485,2.046-45.539,23.334-45.539,49.346v8.258
	c0,0,16.516,0,33.032-16.516V189.934z"/>
<path style="fill:#FFF082;" d="M470.71,90.838H264.258v148.645h214.71V99.096C478.968,94.535,475.271,90.838,470.71,90.838z"/>
<path style="fill:#D4F582;" d="M470.71,388.128H264.258V239.483h214.71V379.87C478.968,384.431,475.271,388.128,470.71,388.128z"/>
<path style="fill:#AEA8AF;" d="M252.756,8.412c-17.175,1.638-29.788,17.044-29.788,34.296v39.871c0,4.561,3.697,8.258,8.258,8.258
	h49.548c4.561,0,8.258-3.697,8.258-8.258v-41.29C289.032,21.975,272.457,6.534,252.756,8.412z"/>
<path style="fill:#6F6571;" d="M363.355,503.741h-214.71c-9.122,0-16.516-7.395-16.516-16.516l0,0
	c0-9.122,7.395-16.516,16.516-16.516h214.71c9.122,0,16.516,7.395,16.516,16.516l0,0
	C379.871,496.346,372.476,503.741,363.355,503.741z"/>
<g>
	<polygon style="fill:#4B3F4E;" points="338.581,421.16 173.419,421.16 170.667,437.676 341.333,437.676 	"/>
	<circle style="fill:#4B3F4E;" cx="256" cy="41.289" r="16.516"/>
</g>
<path style="fill:#FAD7A5;" d="M433.951,231.225c-1.469-1.841-3.219-3.472-5.404-4.565l-35.853-17.927
	c-2.798-1.399-4.565-4.259-4.565-7.387v-19.67h-33.032v19.67c0,3.128-1.767,5.987-4.565,7.387l-35.854,17.927
	c-2.185,1.093-3.934,2.723-5.403,4.565H433.951z"/>
<path style="fill:#F0C891;" d="M371.613,206.451c5.912,0,11.556-1.089,16.814-2.989c-0.181-0.682-0.297-1.389-0.297-2.115v-19.67
	h-33.032v19.67c0,0.726-0.116,1.433-0.297,2.115C360.056,205.361,365.701,206.451,371.613,206.451z"/>
<path style="fill:#FFE1B4;" d="M371.613,189.934L371.613,189.934c-18.243,0-33.032-14.789-33.032-33.032v-16.516
	c0-18.243,14.789-33.032,33.032-33.032l0,0c18.243,0,33.032,14.789,33.032,33.032v16.516
	C404.645,175.145,389.856,189.934,371.613,189.934z"/>
<path style="fill:#FAD7A5;" d="M363.355,165.16v-33.032c0-9.764,4.317-18.446,11.051-24.493c-0.936-0.08-1.836-0.281-2.793-0.281
	c-18.243,0-33.032,14.789-33.032,33.032v16.516c0,18.243,14.789,33.032,33.032,33.032c0.957,0,1.857-0.202,2.793-0.281
	C367.671,183.606,363.355,174.924,363.355,165.16z"/>
<path style="fill:#AF876E;" d="M404.645,148.644c-33.032,0-66.065-8.258-66.065-8.258l0,0c0-18.243,14.789-33.032,33.032-33.032l0,0
	c18.243,0,33.032,14.789,33.032,33.032L404.645,148.644L404.645,148.644z"/>
<path style="fill:#A07B64;" d="M374.406,107.635c-0.936-0.08-1.836-0.281-2.793-0.281c-18.243,0-33.032,14.789-33.032,33.032
	c0,0,10.139,2.528,24.774,4.787v-13.045C363.355,122.364,367.671,113.682,374.406,107.635z"/>
<g>
	<path style="fill:#FFC850;" d="M428.547,226.66l-29.407-14.704l-19.269,19.269h54.08
		C432.482,229.384,430.732,227.752,428.547,226.66z"/>
	<path style="fill:#FFC850;" d="M363.355,231.225l-19.269-19.269l-29.408,14.704c-2.185,1.092-3.934,2.724-5.403,4.565H363.355z"/>
</g>
<path style="fill:#B48764;" d="M433.951,388.128c-1.469-1.841-3.219-3.472-5.404-4.565l-35.853-17.927
	c-2.798-1.399-4.565-4.259-4.565-7.387v-19.67h-33.032v19.67c0,3.128-1.767,5.987-4.565,7.387l-35.854,17.927
	c-2.185,1.093-3.934,2.723-5.403,4.565H433.951z"/>
<path style="fill:#966D50;" d="M371.613,363.354c5.912,0,11.556-1.089,16.814-2.989c-0.181-0.682-0.297-1.389-0.297-2.115v-19.67
	h-33.032v19.67c0,0.726-0.116,1.433-0.297,2.115C360.056,362.265,365.701,363.354,371.613,363.354z"/>
<path style="fill:#C39772;" d="M371.613,346.838L371.613,346.838c-18.243,0-33.032-14.789-33.032-33.032v-16.517
	c0-18.243,14.789-33.032,33.032-33.032l0,0c18.243,0,33.032,14.789,33.032,33.032v16.516
	C404.645,332.049,389.856,346.838,371.613,346.838z"/>
<path style="fill:#B48764;" d="M363.355,322.063v-33.032c0-9.764,4.317-18.446,11.051-24.493c-0.936-0.08-1.836-0.281-2.793-0.281
	c-18.243,0-33.032,14.789-33.032,33.032v16.516c0,18.243,14.789,33.032,33.032,33.032c0.957,0,1.857-0.202,2.793-0.281
	C367.671,340.51,363.355,331.827,363.355,322.063z"/>
<path style="fill:#5C414B;" d="M404.645,305.547c-33.032,0-66.065-8.258-66.065-8.258l0,0c0-18.243,14.789-33.032,33.032-33.032l0,0
	c18.243,0,33.032,14.789,33.032,33.032L404.645,305.547L404.645,305.547z"/>
<path style="fill:#503441;" d="M374.406,264.538c-0.936-0.08-1.836-0.281-2.793-0.281c-18.243,0-33.032,14.789-33.032,33.032
	c0,0,10.139,2.528,24.774,4.787v-13.045C363.355,279.268,367.671,270.586,374.406,264.538z"/>
<g>
	<path style="fill:#AFD755;" d="M428.547,383.563l-29.407-14.704l-19.269,19.269h54.08
		C432.482,386.287,430.732,384.656,428.547,383.563z"/>
	<path style="fill:#AFD755;" d="M363.355,388.128l-19.269-19.269l-29.408,14.704c-2.185,1.092-3.934,2.724-5.403,4.565H363.355z"/>
</g>
<g>
	<path style="fill:#00C3FF;" d="M140.387,312.937v75.191h16.516v-75.191C151.797,315.901,145.492,315.901,140.387,312.937z"/>
	<path style="fill:#00C3FF;" d="M100.099,347.839l-22.565-22.564c-2.04,3.636-3.212,7.769-3.212,12.098v50.755h33.032v-22.771
		C107.355,358.787,104.745,352.485,100.099,347.839z"/>
	<path style="fill:#00C3FF;" d="M197.192,347.839l22.565-22.564c2.04,3.636,3.212,7.769,3.212,12.098v50.755h-33.032v-22.771
		C189.935,358.787,192.545,352.485,197.192,347.839z"/>
</g>
<polygon style="fill:#FFFFFF;" points="478.968,231.225 272.516,231.225 272.516,90.838 256,90.838 256,388.128 272.516,388.128 
	272.516,247.741 478.968,247.741 "/>
<g>
</g>
<g>
</g>
<g>
</g>
<g>
</g>
<g>
</g>
<g>
</g>
<g>
</g>
<g>
</g>
<g>
</g>
<g>
</g>
<g>
</g>
<g>
</g>
<g>
</g>
<g>
</g>
<g>
</g>
</svg>
